M48
;Layer_Color=9474304
;FILE_FORMAT=4:4
METRIC,LZ
;TYPE=PLATED
T1F00S00C0.9000
T2F00S00C1.1000
T3F00S00C2.2000
%
T01
X008255Y00762
Y007874
X006477
Y00762
Y008128
Y008382
Y008636
Y00889
Y009144
Y009398
Y009652
Y009906
X008255
Y009652
Y009398
Y009144
Y00889
Y008636
Y008382
Y008128
T02
X0121412Y0065024
X0123952
Y0067564
X0121412
Y0071374
X0123952
Y0073914
X0121412
Y0078486
X0123952
X0118872
Y0073914
Y0071374
Y0067564
Y0065024
X0107442Y006604
Y00635
Y006858
Y007112
Y007366
Y00762
Y007874
X0092202
Y00762
Y007366
Y007112
Y006858
Y006604
Y00635
Y008128
Y008382
Y008636
Y00889
Y009144
Y009398
Y009652
Y009906
X0107442
Y009652
Y009398
Y009144
Y00889
Y008636
Y008382
Y008128
X0118872Y0081026
Y0084328
Y0086868
Y009017
Y009271
Y0097282
Y0099822
X0121412
X0123952
Y0097282
X0121412
Y009271
X0123952
Y009017
X0121412
Y0086868
X0123952
Y0084328
X0121412
Y0081026
X0123952
T03
X0123Y006
X0065
Y0105
X0123
M30
