G04 Layer_Physical_Order=1*
G04 Layer_Color=255*
%FSLAX44Y44*%
%MOMM*%
G71*
G01*
G75*
%ADD10C,1.5240*%
%ADD11R,1.6000X1.6000*%
%ADD12C,1.6000*%
%ADD13R,1.6000X1.6000*%
%ADD14R,1.5000X1.5000*%
%ADD15C,1.5000*%
G36*
X1260000Y1020000D02*
X1260000Y632460D01*
X1212460Y632460D01*
X1189600Y609600D01*
X876300Y609600D01*
X876300Y1020000D01*
X1260000Y1020000D01*
D02*
G37*
%LPC*%
G36*
X1249984Y783590D02*
X1240790D01*
Y774396D01*
X1242271Y774591D01*
X1244836Y775653D01*
X1247037Y777343D01*
X1248727Y779545D01*
X1249789Y782109D01*
X1249984Y783590D01*
D02*
G37*
G36*
X1238250D02*
X1229056D01*
X1229251Y782109D01*
X1230313Y779545D01*
X1232003Y777343D01*
X1234204Y775653D01*
X1236768Y774591D01*
X1238250Y774396D01*
Y783590D01*
D02*
G37*
G36*
X922020Y798031D02*
X919268Y797669D01*
X916704Y796607D01*
X914503Y794917D01*
X912813Y792716D01*
X911751Y790152D01*
X911389Y787400D01*
X911751Y784649D01*
X912813Y782085D01*
X914503Y779883D01*
X916704Y778193D01*
X919268Y777131D01*
X922020Y776769D01*
X924771Y777131D01*
X927336Y778193D01*
X929537Y779883D01*
X931227Y782085D01*
X932289Y784649D01*
X932651Y787400D01*
X932289Y790152D01*
X931227Y792716D01*
X929537Y794917D01*
X927336Y796607D01*
X924771Y797669D01*
X922020Y798031D01*
D02*
G37*
G36*
X1238250Y795324D02*
X1236768Y795129D01*
X1234204Y794067D01*
X1232003Y792377D01*
X1230313Y790175D01*
X1229251Y787611D01*
X1229056Y786130D01*
X1238250D01*
Y795324D01*
D02*
G37*
G36*
X1074420Y798031D02*
X1071668Y797669D01*
X1069105Y796607D01*
X1066903Y794917D01*
X1065213Y792716D01*
X1064151Y790152D01*
X1063789Y787400D01*
X1064151Y784649D01*
X1065213Y782085D01*
X1066903Y779883D01*
X1069105Y778193D01*
X1071668Y777131D01*
X1074420Y776769D01*
X1077171Y777131D01*
X1079735Y778193D01*
X1081937Y779883D01*
X1083627Y782085D01*
X1084689Y784649D01*
X1085051Y787400D01*
X1084689Y790152D01*
X1083627Y792716D01*
X1081937Y794917D01*
X1079735Y796607D01*
X1077171Y797669D01*
X1074420Y798031D01*
D02*
G37*
G36*
X1199260Y795400D02*
X1178180D01*
Y774320D01*
X1199260D01*
Y795400D01*
D02*
G37*
G36*
X1239520Y749771D02*
X1236768Y749409D01*
X1234204Y748347D01*
X1232003Y746657D01*
X1230313Y744455D01*
X1229251Y741891D01*
X1228889Y739140D01*
X1229251Y736388D01*
X1230313Y733824D01*
X1232003Y731623D01*
X1234204Y729933D01*
X1236768Y728871D01*
X1239520Y728509D01*
X1242271Y728871D01*
X1244836Y729933D01*
X1247037Y731623D01*
X1248727Y733824D01*
X1249789Y736388D01*
X1250151Y739140D01*
X1249789Y741891D01*
X1248727Y744455D01*
X1247037Y746657D01*
X1244836Y748347D01*
X1242271Y749409D01*
X1239520Y749771D01*
D02*
G37*
G36*
X1214120D02*
X1211368Y749409D01*
X1208804Y748347D01*
X1206603Y746657D01*
X1204913Y744455D01*
X1203851Y741891D01*
X1203489Y739140D01*
X1203851Y736388D01*
X1204913Y733824D01*
X1206603Y731623D01*
X1208804Y729933D01*
X1211368Y728871D01*
X1214120Y728509D01*
X1216871Y728871D01*
X1219436Y729933D01*
X1221637Y731623D01*
X1223327Y733824D01*
X1224389Y736388D01*
X1224751Y739140D01*
X1224389Y741891D01*
X1223327Y744455D01*
X1221637Y746657D01*
X1219436Y748347D01*
X1216871Y749409D01*
X1214120Y749771D01*
D02*
G37*
G36*
X922020Y772631D02*
X919268Y772269D01*
X916704Y771207D01*
X914503Y769517D01*
X912813Y767316D01*
X911751Y764752D01*
X911389Y762000D01*
X911751Y759249D01*
X912813Y756684D01*
X914503Y754483D01*
X916704Y752793D01*
X919268Y751731D01*
X922020Y751369D01*
X924771Y751731D01*
X927336Y752793D01*
X929537Y754483D01*
X931227Y756684D01*
X932289Y759249D01*
X932651Y762000D01*
X932289Y764752D01*
X931227Y767316D01*
X929537Y769517D01*
X927336Y771207D01*
X924771Y772269D01*
X922020Y772631D01*
D02*
G37*
G36*
X1214120Y795491D02*
X1211368Y795129D01*
X1208804Y794067D01*
X1206603Y792377D01*
X1204913Y790175D01*
X1203851Y787611D01*
X1203489Y784860D01*
X1203851Y782109D01*
X1204913Y779545D01*
X1206603Y777343D01*
X1208804Y775653D01*
X1211368Y774591D01*
X1214120Y774229D01*
X1216871Y774591D01*
X1219436Y775653D01*
X1221637Y777343D01*
X1223327Y779545D01*
X1224389Y782109D01*
X1224751Y784860D01*
X1224389Y787611D01*
X1223327Y790175D01*
X1221637Y792377D01*
X1219436Y794067D01*
X1216871Y795129D01*
X1214120Y795491D01*
D02*
G37*
G36*
X1074420Y772631D02*
X1071668Y772269D01*
X1069105Y771207D01*
X1066903Y769517D01*
X1065213Y767316D01*
X1064151Y764752D01*
X1063789Y762000D01*
X1064151Y759249D01*
X1065213Y756684D01*
X1066903Y754483D01*
X1069105Y752793D01*
X1071668Y751731D01*
X1074420Y751369D01*
X1077171Y751731D01*
X1079735Y752793D01*
X1081937Y754483D01*
X1083627Y756684D01*
X1084689Y759249D01*
X1085051Y762000D01*
X1084689Y764752D01*
X1083627Y767316D01*
X1081937Y769517D01*
X1079735Y771207D01*
X1077171Y772269D01*
X1074420Y772631D01*
D02*
G37*
G36*
X1240790Y795324D02*
Y786130D01*
X1249984D01*
X1249789Y787611D01*
X1248727Y790175D01*
X1247037Y792377D01*
X1244836Y794067D01*
X1242271Y795129D01*
X1240790Y795324D01*
D02*
G37*
G36*
Y820724D02*
Y811530D01*
X1249984D01*
X1249789Y813011D01*
X1248727Y815575D01*
X1247037Y817777D01*
X1244836Y819467D01*
X1242271Y820529D01*
X1240790Y820724D01*
D02*
G37*
G36*
X1238250D02*
X1236768Y820529D01*
X1234204Y819467D01*
X1232003Y817777D01*
X1230313Y815575D01*
X1229251Y813011D01*
X1229056Y811530D01*
X1238250D01*
Y820724D01*
D02*
G37*
G36*
X922020Y848831D02*
X919268Y848469D01*
X916704Y847407D01*
X914503Y845717D01*
X912813Y843515D01*
X911751Y840952D01*
X911389Y838200D01*
X911751Y835449D01*
X912813Y832885D01*
X914503Y830683D01*
X916704Y828993D01*
X919268Y827931D01*
X922020Y827569D01*
X924771Y827931D01*
X927336Y828993D01*
X929537Y830683D01*
X931227Y832885D01*
X932289Y835449D01*
X932651Y838200D01*
X932289Y840952D01*
X931227Y843515D01*
X929537Y845717D01*
X927336Y847407D01*
X924771Y848469D01*
X922020Y848831D01*
D02*
G37*
G36*
X1214120Y853911D02*
X1211368Y853549D01*
X1208804Y852487D01*
X1206603Y850797D01*
X1204913Y848596D01*
X1203851Y846031D01*
X1203489Y843280D01*
X1203851Y840528D01*
X1204913Y837964D01*
X1206603Y835763D01*
X1208804Y834073D01*
X1211368Y833011D01*
X1214120Y832649D01*
X1216871Y833011D01*
X1219436Y834073D01*
X1221637Y835763D01*
X1223327Y837964D01*
X1224389Y840528D01*
X1224751Y843280D01*
X1224389Y846031D01*
X1223327Y848596D01*
X1221637Y850797D01*
X1219436Y852487D01*
X1216871Y853549D01*
X1214120Y853911D01*
D02*
G37*
G36*
X1074420Y848831D02*
X1071668Y848469D01*
X1069105Y847407D01*
X1066903Y845717D01*
X1065213Y843515D01*
X1064151Y840952D01*
X1063789Y838200D01*
X1064151Y835449D01*
X1065213Y832885D01*
X1066903Y830683D01*
X1069105Y828993D01*
X1071668Y827931D01*
X1074420Y827569D01*
X1077171Y827931D01*
X1079735Y828993D01*
X1081937Y830683D01*
X1083627Y832885D01*
X1084689Y835449D01*
X1085051Y838200D01*
X1084689Y840952D01*
X1083627Y843515D01*
X1081937Y845717D01*
X1079735Y847407D01*
X1077171Y848469D01*
X1074420Y848831D01*
D02*
G37*
G36*
Y823431D02*
X1071668Y823069D01*
X1069105Y822007D01*
X1066903Y820317D01*
X1065213Y818115D01*
X1064151Y815552D01*
X1063789Y812800D01*
X1064151Y810049D01*
X1065213Y807485D01*
X1066903Y805283D01*
X1069105Y803593D01*
X1071668Y802531D01*
X1074420Y802169D01*
X1077171Y802531D01*
X1079735Y803593D01*
X1081937Y805283D01*
X1083627Y807485D01*
X1084689Y810049D01*
X1085051Y812800D01*
X1084689Y815552D01*
X1083627Y818115D01*
X1081937Y820317D01*
X1079735Y822007D01*
X1077171Y823069D01*
X1074420Y823431D01*
D02*
G37*
G36*
X1214120Y820891D02*
X1211368Y820529D01*
X1208804Y819467D01*
X1206603Y817777D01*
X1204913Y815575D01*
X1203851Y813011D01*
X1203489Y810260D01*
X1203851Y807508D01*
X1204913Y804945D01*
X1206603Y802743D01*
X1208804Y801053D01*
X1211368Y799991D01*
X1214120Y799629D01*
X1216871Y799991D01*
X1219436Y801053D01*
X1221637Y802743D01*
X1223327Y804945D01*
X1224389Y807508D01*
X1224751Y810260D01*
X1224389Y813011D01*
X1223327Y815575D01*
X1221637Y817777D01*
X1219436Y819467D01*
X1216871Y820529D01*
X1214120Y820891D01*
D02*
G37*
G36*
X1188720D02*
X1185968Y820529D01*
X1183404Y819467D01*
X1181203Y817777D01*
X1179513Y815575D01*
X1178451Y813011D01*
X1178089Y810260D01*
X1178451Y807508D01*
X1179513Y804945D01*
X1181203Y802743D01*
X1183404Y801053D01*
X1185968Y799991D01*
X1188720Y799629D01*
X1191471Y799991D01*
X1194035Y801053D01*
X1196237Y802743D01*
X1197927Y804945D01*
X1198989Y807508D01*
X1199351Y810260D01*
X1198989Y813011D01*
X1197927Y815575D01*
X1196237Y817777D01*
X1194035Y819467D01*
X1191471Y820529D01*
X1188720Y820891D01*
D02*
G37*
G36*
X1238250Y808990D02*
X1229056D01*
X1229251Y807508D01*
X1230313Y804945D01*
X1232003Y802743D01*
X1234204Y801053D01*
X1236768Y799991D01*
X1238250Y799796D01*
Y808990D01*
D02*
G37*
G36*
X922020Y823431D02*
X919268Y823069D01*
X916704Y822007D01*
X914503Y820317D01*
X912813Y818115D01*
X911751Y815552D01*
X911389Y812800D01*
X911751Y810049D01*
X912813Y807485D01*
X914503Y805283D01*
X916704Y803593D01*
X919268Y802531D01*
X922020Y802169D01*
X924771Y802531D01*
X927336Y803593D01*
X929537Y805283D01*
X931227Y807485D01*
X932289Y810049D01*
X932651Y812800D01*
X932289Y815552D01*
X931227Y818115D01*
X929537Y820317D01*
X927336Y822007D01*
X924771Y823069D01*
X922020Y823431D01*
D02*
G37*
G36*
X1249984Y808990D02*
X1240790D01*
Y799796D01*
X1242271Y799991D01*
X1244836Y801053D01*
X1247037Y802743D01*
X1248727Y804945D01*
X1249789Y807508D01*
X1249984Y808990D01*
D02*
G37*
G36*
X1188720Y686271D02*
X1185968Y685909D01*
X1183404Y684847D01*
X1181203Y683157D01*
X1179513Y680956D01*
X1178451Y678391D01*
X1178089Y675640D01*
X1178451Y672888D01*
X1179513Y670324D01*
X1181203Y668123D01*
X1183404Y666433D01*
X1185968Y665371D01*
X1188720Y665009D01*
X1191471Y665371D01*
X1194035Y666433D01*
X1196237Y668123D01*
X1197927Y670324D01*
X1198989Y672888D01*
X1199351Y675640D01*
X1198989Y678391D01*
X1197927Y680956D01*
X1196237Y683157D01*
X1194035Y684847D01*
X1191471Y685909D01*
X1188720Y686271D01*
D02*
G37*
G36*
X1074420Y671031D02*
X1071668Y670669D01*
X1069105Y669607D01*
X1066903Y667917D01*
X1065213Y665715D01*
X1064151Y663151D01*
X1063789Y660400D01*
X1064151Y657648D01*
X1065213Y655085D01*
X1066903Y652883D01*
X1069105Y651193D01*
X1071668Y650131D01*
X1074420Y649769D01*
X1077171Y650131D01*
X1079735Y651193D01*
X1081937Y652883D01*
X1083627Y655085D01*
X1084689Y657648D01*
X1085051Y660400D01*
X1084689Y663151D01*
X1083627Y665715D01*
X1081937Y667917D01*
X1079735Y669607D01*
X1077171Y670669D01*
X1074420Y671031D01*
D02*
G37*
G36*
X1214120Y686271D02*
X1211368Y685909D01*
X1208804Y684847D01*
X1206603Y683157D01*
X1204913Y680956D01*
X1203851Y678391D01*
X1203489Y675640D01*
X1203851Y672888D01*
X1204913Y670324D01*
X1206603Y668123D01*
X1208804Y666433D01*
X1211368Y665371D01*
X1214120Y665009D01*
X1216871Y665371D01*
X1219436Y666433D01*
X1221637Y668123D01*
X1223327Y670324D01*
X1224389Y672888D01*
X1224751Y675640D01*
X1224389Y678391D01*
X1223327Y680956D01*
X1221637Y683157D01*
X1219436Y684847D01*
X1216871Y685909D01*
X1214120Y686271D01*
D02*
G37*
G36*
X922020Y696431D02*
X919268Y696069D01*
X916704Y695007D01*
X914503Y693317D01*
X912813Y691115D01*
X911751Y688551D01*
X911389Y685800D01*
X911751Y683048D01*
X912813Y680484D01*
X914503Y678283D01*
X916704Y676593D01*
X919268Y675531D01*
X922020Y675169D01*
X924771Y675531D01*
X927336Y676593D01*
X929537Y678283D01*
X931227Y680484D01*
X932289Y683048D01*
X932651Y685800D01*
X932289Y688551D01*
X931227Y691115D01*
X929537Y693317D01*
X927336Y695007D01*
X924771Y696069D01*
X922020Y696431D01*
D02*
G37*
G36*
X1239520Y686271D02*
X1236768Y685909D01*
X1234204Y684847D01*
X1232003Y683157D01*
X1230313Y680956D01*
X1229251Y678391D01*
X1228889Y675640D01*
X1229251Y672888D01*
X1230313Y670324D01*
X1232003Y668123D01*
X1234204Y666433D01*
X1236768Y665371D01*
X1239520Y665009D01*
X1242271Y665371D01*
X1244836Y666433D01*
X1247037Y668123D01*
X1248727Y670324D01*
X1249789Y672888D01*
X1250151Y675640D01*
X1249789Y678391D01*
X1248727Y680956D01*
X1247037Y683157D01*
X1244836Y684847D01*
X1242271Y685909D01*
X1239520Y686271D01*
D02*
G37*
G36*
X922020Y671031D02*
X919268Y670669D01*
X916704Y669607D01*
X914503Y667917D01*
X912813Y665715D01*
X911751Y663151D01*
X911389Y660400D01*
X911751Y657648D01*
X912813Y655085D01*
X914503Y652883D01*
X916704Y651193D01*
X919268Y650131D01*
X922020Y649769D01*
X924771Y650131D01*
X927336Y651193D01*
X929537Y652883D01*
X931227Y655085D01*
X932289Y657648D01*
X932651Y660400D01*
X932289Y663151D01*
X931227Y665715D01*
X929537Y667917D01*
X927336Y669607D01*
X924771Y670669D01*
X922020Y671031D01*
D02*
G37*
G36*
X1084960Y645540D02*
X1063880D01*
Y624460D01*
X1084960D01*
Y645540D01*
D02*
G37*
G36*
X932560D02*
X911480D01*
Y624460D01*
X932560D01*
Y645540D01*
D02*
G37*
G36*
X1214120Y660871D02*
X1211368Y660509D01*
X1208804Y659447D01*
X1206603Y657757D01*
X1204913Y655555D01*
X1203851Y652991D01*
X1203489Y650240D01*
X1203851Y647488D01*
X1204913Y644924D01*
X1206603Y642723D01*
X1208804Y641033D01*
X1211368Y639971D01*
X1214120Y639609D01*
X1216871Y639971D01*
X1219436Y641033D01*
X1221637Y642723D01*
X1223327Y644924D01*
X1224389Y647488D01*
X1224751Y650240D01*
X1224389Y652991D01*
X1223327Y655555D01*
X1221637Y657757D01*
X1219436Y659447D01*
X1216871Y660509D01*
X1214120Y660871D01*
D02*
G37*
G36*
X1199260Y660780D02*
X1178180D01*
Y639700D01*
X1199260D01*
Y660780D01*
D02*
G37*
G36*
X1239520Y660871D02*
X1236768Y660509D01*
X1234204Y659447D01*
X1232003Y657757D01*
X1230313Y655555D01*
X1229251Y652991D01*
X1228889Y650240D01*
X1229251Y647488D01*
X1230313Y644924D01*
X1232003Y642723D01*
X1234204Y641033D01*
X1236768Y639971D01*
X1239520Y639609D01*
X1242271Y639971D01*
X1244836Y641033D01*
X1247037Y642723D01*
X1248727Y644924D01*
X1249789Y647488D01*
X1250151Y650240D01*
X1249789Y652991D01*
X1248727Y655555D01*
X1247037Y657757D01*
X1244836Y659447D01*
X1242271Y660509D01*
X1239520Y660871D01*
D02*
G37*
G36*
X1074420Y696431D02*
X1071668Y696069D01*
X1069105Y695007D01*
X1066903Y693317D01*
X1065213Y691115D01*
X1064151Y688551D01*
X1063789Y685800D01*
X1064151Y683048D01*
X1065213Y680484D01*
X1066903Y678283D01*
X1069105Y676593D01*
X1071668Y675531D01*
X1074420Y675169D01*
X1077171Y675531D01*
X1079735Y676593D01*
X1081937Y678283D01*
X1083627Y680484D01*
X1084689Y683048D01*
X1085051Y685800D01*
X1084689Y688551D01*
X1083627Y691115D01*
X1081937Y693317D01*
X1079735Y695007D01*
X1077171Y696069D01*
X1074420Y696431D01*
D02*
G37*
G36*
X1075690Y721664D02*
Y712470D01*
X1084884D01*
X1084689Y713951D01*
X1083627Y716516D01*
X1081937Y718717D01*
X1079735Y720407D01*
X1077171Y721469D01*
X1075690Y721664D01*
D02*
G37*
G36*
X1073150D02*
X1071668Y721469D01*
X1069105Y720407D01*
X1066903Y718717D01*
X1065213Y716516D01*
X1064151Y713951D01*
X1063956Y712470D01*
X1073150D01*
Y721664D01*
D02*
G37*
G36*
X922020Y747231D02*
X919268Y746869D01*
X916704Y745807D01*
X914503Y744117D01*
X912813Y741916D01*
X911751Y739352D01*
X911389Y736600D01*
X911751Y733848D01*
X912813Y731284D01*
X914503Y729083D01*
X916704Y727393D01*
X919268Y726331D01*
X922020Y725969D01*
X924771Y726331D01*
X927336Y727393D01*
X929537Y729083D01*
X931227Y731284D01*
X932289Y733848D01*
X932651Y736600D01*
X932289Y739352D01*
X931227Y741916D01*
X929537Y744117D01*
X927336Y745807D01*
X924771Y746869D01*
X922020Y747231D01*
D02*
G37*
G36*
X1188720Y749771D02*
X1185968Y749409D01*
X1183404Y748347D01*
X1181203Y746657D01*
X1179513Y744455D01*
X1178451Y741891D01*
X1178089Y739140D01*
X1178451Y736388D01*
X1179513Y733824D01*
X1181203Y731623D01*
X1183404Y729933D01*
X1185968Y728871D01*
X1188720Y728509D01*
X1191471Y728871D01*
X1194035Y729933D01*
X1196237Y731623D01*
X1197927Y733824D01*
X1198989Y736388D01*
X1199351Y739140D01*
X1198989Y741891D01*
X1197927Y744455D01*
X1196237Y746657D01*
X1194035Y748347D01*
X1191471Y749409D01*
X1188720Y749771D01*
D02*
G37*
G36*
X1074420Y747231D02*
X1071668Y746869D01*
X1069105Y745807D01*
X1066903Y744117D01*
X1065213Y741916D01*
X1064151Y739352D01*
X1063789Y736600D01*
X1064151Y733848D01*
X1065213Y731284D01*
X1066903Y729083D01*
X1069105Y727393D01*
X1071668Y726331D01*
X1074420Y725969D01*
X1077171Y726331D01*
X1079735Y727393D01*
X1081937Y729083D01*
X1083627Y731284D01*
X1084689Y733848D01*
X1085051Y736600D01*
X1084689Y739352D01*
X1083627Y741916D01*
X1081937Y744117D01*
X1079735Y745807D01*
X1077171Y746869D01*
X1074420Y747231D01*
D02*
G37*
G36*
X1199260Y724280D02*
X1178180D01*
Y703200D01*
X1199260D01*
Y724280D01*
D02*
G37*
G36*
X1073150Y709930D02*
X1063956D01*
X1064151Y708448D01*
X1065213Y705884D01*
X1066903Y703683D01*
X1069105Y701993D01*
X1071668Y700931D01*
X1073150Y700736D01*
Y709930D01*
D02*
G37*
G36*
X922020Y721831D02*
X919268Y721469D01*
X916704Y720407D01*
X914503Y718717D01*
X912813Y716516D01*
X911751Y713951D01*
X911389Y711200D01*
X911751Y708448D01*
X912813Y705884D01*
X914503Y703683D01*
X916704Y701993D01*
X919268Y700931D01*
X922020Y700569D01*
X924771Y700931D01*
X927336Y701993D01*
X929537Y703683D01*
X931227Y705884D01*
X932289Y708448D01*
X932651Y711200D01*
X932289Y713951D01*
X931227Y716516D01*
X929537Y718717D01*
X927336Y720407D01*
X924771Y721469D01*
X922020Y721831D01*
D02*
G37*
G36*
X1084884Y709930D02*
X1075690D01*
Y700736D01*
X1077171Y700931D01*
X1079735Y701993D01*
X1081937Y703683D01*
X1083627Y705884D01*
X1084689Y708448D01*
X1084884Y709930D01*
D02*
G37*
G36*
X1239520Y724371D02*
X1236768Y724009D01*
X1234204Y722947D01*
X1232003Y721257D01*
X1230313Y719055D01*
X1229251Y716491D01*
X1228889Y713740D01*
X1229251Y710988D01*
X1230313Y708425D01*
X1232003Y706223D01*
X1234204Y704533D01*
X1236768Y703471D01*
X1239520Y703109D01*
X1242271Y703471D01*
X1244836Y704533D01*
X1247037Y706223D01*
X1248727Y708425D01*
X1249789Y710988D01*
X1250151Y713740D01*
X1249789Y716491D01*
X1248727Y719055D01*
X1247037Y721257D01*
X1244836Y722947D01*
X1242271Y724009D01*
X1239520Y724371D01*
D02*
G37*
G36*
X1214120D02*
X1211368Y724009D01*
X1208804Y722947D01*
X1206603Y721257D01*
X1204913Y719055D01*
X1203851Y716491D01*
X1203489Y713740D01*
X1203851Y710988D01*
X1204913Y708425D01*
X1206603Y706223D01*
X1208804Y704533D01*
X1211368Y703471D01*
X1214120Y703109D01*
X1216871Y703471D01*
X1219436Y704533D01*
X1221637Y706223D01*
X1223327Y708425D01*
X1224389Y710988D01*
X1224751Y713740D01*
X1224389Y716491D01*
X1223327Y719055D01*
X1221637Y721257D01*
X1219436Y722947D01*
X1216871Y724009D01*
X1214120Y724371D01*
D02*
G37*
G36*
X922020Y975831D02*
X919268Y975469D01*
X916704Y974407D01*
X914503Y972717D01*
X912813Y970516D01*
X911751Y967952D01*
X911389Y965200D01*
X911751Y962449D01*
X912813Y959884D01*
X914503Y957683D01*
X916704Y955993D01*
X919268Y954931D01*
X922020Y954569D01*
X924771Y954931D01*
X927336Y955993D01*
X929537Y957683D01*
X931227Y959884D01*
X932289Y962449D01*
X932651Y965200D01*
X932289Y967952D01*
X931227Y970516D01*
X929537Y972717D01*
X927336Y974407D01*
X924771Y975469D01*
X922020Y975831D01*
D02*
G37*
G36*
X1074420Y950431D02*
X1071668Y950069D01*
X1069105Y949007D01*
X1066903Y947317D01*
X1065213Y945116D01*
X1064151Y942551D01*
X1063789Y939800D01*
X1064151Y937048D01*
X1065213Y934484D01*
X1066903Y932283D01*
X1069105Y930593D01*
X1071668Y929531D01*
X1074420Y929169D01*
X1077171Y929531D01*
X1079735Y930593D01*
X1081937Y932283D01*
X1083627Y934484D01*
X1084689Y937048D01*
X1085051Y939800D01*
X1084689Y942551D01*
X1083627Y945116D01*
X1081937Y947317D01*
X1079735Y949007D01*
X1077171Y950069D01*
X1074420Y950431D01*
D02*
G37*
G36*
Y975831D02*
X1071668Y975469D01*
X1069105Y974407D01*
X1066903Y972717D01*
X1065213Y970516D01*
X1064151Y967952D01*
X1063789Y965200D01*
X1064151Y962449D01*
X1065213Y959884D01*
X1066903Y957683D01*
X1069105Y955993D01*
X1071668Y954931D01*
X1074420Y954569D01*
X1077171Y954931D01*
X1079735Y955993D01*
X1081937Y957683D01*
X1083627Y959884D01*
X1084689Y962449D01*
X1085051Y965200D01*
X1084689Y967952D01*
X1083627Y970516D01*
X1081937Y972717D01*
X1079735Y974407D01*
X1077171Y975469D01*
X1074420Y975831D01*
D02*
G37*
G36*
X1199260Y983360D02*
X1178180D01*
Y962280D01*
X1199260D01*
Y983360D01*
D02*
G37*
G36*
X1214120Y983451D02*
X1211368Y983089D01*
X1208804Y982027D01*
X1206603Y980337D01*
X1204913Y978136D01*
X1203851Y975572D01*
X1203489Y972820D01*
X1203851Y970069D01*
X1204913Y967505D01*
X1206603Y965303D01*
X1208804Y963613D01*
X1211368Y962551D01*
X1214120Y962189D01*
X1216871Y962551D01*
X1219436Y963613D01*
X1221637Y965303D01*
X1223327Y967505D01*
X1224389Y970069D01*
X1224751Y972820D01*
X1224389Y975572D01*
X1223327Y978136D01*
X1221637Y980337D01*
X1219436Y982027D01*
X1216871Y983089D01*
X1214120Y983451D01*
D02*
G37*
G36*
X922020Y950431D02*
X919268Y950069D01*
X916704Y949007D01*
X914503Y947317D01*
X912813Y945116D01*
X911751Y942551D01*
X911389Y939800D01*
X911751Y937048D01*
X912813Y934484D01*
X914503Y932283D01*
X916704Y930593D01*
X919268Y929531D01*
X922020Y929169D01*
X924771Y929531D01*
X927336Y930593D01*
X929537Y932283D01*
X931227Y934484D01*
X932289Y937048D01*
X932651Y939800D01*
X932289Y942551D01*
X931227Y945116D01*
X929537Y947317D01*
X927336Y949007D01*
X924771Y950069D01*
X922020Y950431D01*
D02*
G37*
G36*
X1238250Y925830D02*
X1229056D01*
X1229251Y924349D01*
X1230313Y921785D01*
X1232003Y919583D01*
X1234204Y917893D01*
X1236768Y916831D01*
X1238250Y916636D01*
Y925830D01*
D02*
G37*
G36*
X1214120Y937731D02*
X1211368Y937369D01*
X1208804Y936307D01*
X1206603Y934617D01*
X1204913Y932415D01*
X1203851Y929852D01*
X1203489Y927100D01*
X1203851Y924349D01*
X1204913Y921785D01*
X1206603Y919583D01*
X1208804Y917893D01*
X1211368Y916831D01*
X1214120Y916469D01*
X1216871Y916831D01*
X1219436Y917893D01*
X1221637Y919583D01*
X1223327Y921785D01*
X1224389Y924349D01*
X1224751Y927100D01*
X1224389Y929852D01*
X1223327Y932415D01*
X1221637Y934617D01*
X1219436Y936307D01*
X1216871Y937369D01*
X1214120Y937731D01*
D02*
G37*
G36*
X1249984Y925830D02*
X1240790D01*
Y916636D01*
X1242271Y916831D01*
X1244836Y917893D01*
X1247037Y919583D01*
X1248727Y921785D01*
X1249789Y924349D01*
X1249984Y925830D01*
D02*
G37*
G36*
X1240790Y937564D02*
Y928370D01*
X1249984D01*
X1249789Y929852D01*
X1248727Y932415D01*
X1247037Y934617D01*
X1244836Y936307D01*
X1242271Y937369D01*
X1240790Y937564D01*
D02*
G37*
G36*
X1238250D02*
X1236768Y937369D01*
X1234204Y936307D01*
X1232003Y934617D01*
X1230313Y932415D01*
X1229251Y929852D01*
X1229056Y928370D01*
X1238250D01*
Y937564D01*
D02*
G37*
G36*
Y971550D02*
X1229056D01*
X1229251Y970069D01*
X1230313Y967505D01*
X1232003Y965303D01*
X1234204Y963613D01*
X1236768Y962551D01*
X1238250Y962356D01*
Y971550D01*
D02*
G37*
G36*
Y996950D02*
X1229056D01*
X1229251Y995469D01*
X1230313Y992905D01*
X1232003Y990703D01*
X1234204Y989013D01*
X1236768Y987951D01*
X1238250Y987756D01*
Y996950D01*
D02*
G37*
G36*
X1214120Y1008851D02*
X1211368Y1008489D01*
X1208804Y1007427D01*
X1206603Y1005737D01*
X1204913Y1003536D01*
X1203851Y1000972D01*
X1203489Y998220D01*
X1203851Y995469D01*
X1204913Y992905D01*
X1206603Y990703D01*
X1208804Y989013D01*
X1211368Y987951D01*
X1214120Y987589D01*
X1216871Y987951D01*
X1219436Y989013D01*
X1221637Y990703D01*
X1223327Y992905D01*
X1224389Y995469D01*
X1224751Y998220D01*
X1224389Y1000972D01*
X1223327Y1003536D01*
X1221637Y1005737D01*
X1219436Y1007427D01*
X1216871Y1008489D01*
X1214120Y1008851D01*
D02*
G37*
G36*
X1249984Y996950D02*
X1240790D01*
Y987756D01*
X1242271Y987951D01*
X1244836Y989013D01*
X1247037Y990703D01*
X1248727Y992905D01*
X1249789Y995469D01*
X1249984Y996950D01*
D02*
G37*
G36*
X1240790Y1008684D02*
Y999490D01*
X1249984D01*
X1249789Y1000972D01*
X1248727Y1003536D01*
X1247037Y1005737D01*
X1244836Y1007427D01*
X1242271Y1008489D01*
X1240790Y1008684D01*
D02*
G37*
G36*
X1238250D02*
X1236768Y1008489D01*
X1234204Y1007427D01*
X1232003Y1005737D01*
X1230313Y1003536D01*
X1229251Y1000972D01*
X1229056Y999490D01*
X1238250D01*
Y1008684D01*
D02*
G37*
G36*
X1188720Y1008851D02*
X1185968Y1008489D01*
X1183404Y1007427D01*
X1181203Y1005737D01*
X1179513Y1003536D01*
X1178451Y1000972D01*
X1178089Y998220D01*
X1178451Y995469D01*
X1179513Y992905D01*
X1181203Y990703D01*
X1183404Y989013D01*
X1185968Y987951D01*
X1188720Y987589D01*
X1191471Y987951D01*
X1194035Y989013D01*
X1196237Y990703D01*
X1197927Y992905D01*
X1198989Y995469D01*
X1199351Y998220D01*
X1198989Y1000972D01*
X1197927Y1003536D01*
X1196237Y1005737D01*
X1194035Y1007427D01*
X1191471Y1008489D01*
X1188720Y1008851D01*
D02*
G37*
G36*
X1238250Y983284D02*
X1236768Y983089D01*
X1234204Y982027D01*
X1232003Y980337D01*
X1230313Y978136D01*
X1229251Y975572D01*
X1229056Y974090D01*
X1238250D01*
Y983284D01*
D02*
G37*
G36*
X1249984Y971550D02*
X1240790D01*
Y962356D01*
X1242271Y962551D01*
X1244836Y963613D01*
X1247037Y965303D01*
X1248727Y967505D01*
X1249789Y970069D01*
X1249984Y971550D01*
D02*
G37*
G36*
X1240790Y983284D02*
Y974090D01*
X1249984D01*
X1249789Y975572D01*
X1248727Y978136D01*
X1247037Y980337D01*
X1244836Y982027D01*
X1242271Y983089D01*
X1240790Y983284D01*
D02*
G37*
G36*
X1074420Y1001231D02*
X1071668Y1000869D01*
X1069105Y999807D01*
X1066903Y998117D01*
X1065213Y995916D01*
X1064151Y993352D01*
X1063789Y990600D01*
X1064151Y987849D01*
X1065213Y985285D01*
X1066903Y983083D01*
X1069105Y981393D01*
X1071668Y980331D01*
X1074420Y979969D01*
X1077171Y980331D01*
X1079735Y981393D01*
X1081937Y983083D01*
X1083627Y985285D01*
X1084689Y987849D01*
X1085051Y990600D01*
X1084689Y993352D01*
X1083627Y995916D01*
X1081937Y998117D01*
X1079735Y999807D01*
X1077171Y1000869D01*
X1074420Y1001231D01*
D02*
G37*
G36*
X922020D02*
X919268Y1000869D01*
X916704Y999807D01*
X914503Y998117D01*
X912813Y995916D01*
X911751Y993352D01*
X911389Y990600D01*
X911751Y987849D01*
X912813Y985285D01*
X914503Y983083D01*
X916704Y981393D01*
X919268Y980331D01*
X922020Y979969D01*
X924771Y980331D01*
X927336Y981393D01*
X929537Y983083D01*
X931227Y985285D01*
X932289Y987849D01*
X932651Y990600D01*
X932289Y993352D01*
X931227Y995916D01*
X929537Y998117D01*
X927336Y999807D01*
X924771Y1000869D01*
X922020Y1001231D01*
D02*
G37*
G36*
X1188720Y937731D02*
X1185968Y937369D01*
X1183404Y936307D01*
X1181203Y934617D01*
X1179513Y932415D01*
X1178451Y929852D01*
X1178089Y927100D01*
X1178451Y924349D01*
X1179513Y921785D01*
X1181203Y919583D01*
X1183404Y917893D01*
X1185968Y916831D01*
X1188720Y916469D01*
X1191471Y916831D01*
X1194035Y917893D01*
X1196237Y919583D01*
X1197927Y921785D01*
X1198989Y924349D01*
X1199351Y927100D01*
X1198989Y929852D01*
X1197927Y932415D01*
X1196237Y934617D01*
X1194035Y936307D01*
X1191471Y937369D01*
X1188720Y937731D01*
D02*
G37*
G36*
Y879311D02*
X1185968Y878949D01*
X1183404Y877887D01*
X1181203Y876197D01*
X1179513Y873996D01*
X1178451Y871432D01*
X1178089Y868680D01*
X1178451Y865928D01*
X1179513Y863364D01*
X1181203Y861163D01*
X1183404Y859473D01*
X1185968Y858411D01*
X1188720Y858049D01*
X1191471Y858411D01*
X1194035Y859473D01*
X1196237Y861163D01*
X1197927Y863364D01*
X1198989Y865928D01*
X1199351Y868680D01*
X1198989Y871432D01*
X1197927Y873996D01*
X1196237Y876197D01*
X1194035Y877887D01*
X1191471Y878949D01*
X1188720Y879311D01*
D02*
G37*
G36*
X1074420Y874231D02*
X1071668Y873869D01*
X1069105Y872807D01*
X1066903Y871117D01*
X1065213Y868915D01*
X1064151Y866351D01*
X1063789Y863600D01*
X1064151Y860848D01*
X1065213Y858285D01*
X1066903Y856083D01*
X1069105Y854393D01*
X1071668Y853331D01*
X1074420Y852969D01*
X1077171Y853331D01*
X1079735Y854393D01*
X1081937Y856083D01*
X1083627Y858285D01*
X1084689Y860848D01*
X1085051Y863600D01*
X1084689Y866351D01*
X1083627Y868915D01*
X1081937Y871117D01*
X1079735Y872807D01*
X1077171Y873869D01*
X1074420Y874231D01*
D02*
G37*
G36*
X1214120Y879311D02*
X1211368Y878949D01*
X1208804Y877887D01*
X1206603Y876197D01*
X1204913Y873996D01*
X1203851Y871432D01*
X1203489Y868680D01*
X1203851Y865928D01*
X1204913Y863364D01*
X1206603Y861163D01*
X1208804Y859473D01*
X1211368Y858411D01*
X1214120Y858049D01*
X1216871Y858411D01*
X1219436Y859473D01*
X1221637Y861163D01*
X1223327Y863364D01*
X1224389Y865928D01*
X1224751Y868680D01*
X1224389Y871432D01*
X1223327Y873996D01*
X1221637Y876197D01*
X1219436Y877887D01*
X1216871Y878949D01*
X1214120Y879311D01*
D02*
G37*
G36*
X1249984Y867410D02*
X1240790D01*
Y858216D01*
X1242271Y858411D01*
X1244836Y859473D01*
X1247037Y861163D01*
X1248727Y863364D01*
X1249789Y865928D01*
X1249984Y867410D01*
D02*
G37*
G36*
X1238250D02*
X1229056D01*
X1229251Y865928D01*
X1230313Y863364D01*
X1232003Y861163D01*
X1234204Y859473D01*
X1236768Y858411D01*
X1238250Y858216D01*
Y867410D01*
D02*
G37*
G36*
X922020Y874231D02*
X919268Y873869D01*
X916704Y872807D01*
X914503Y871117D01*
X912813Y868915D01*
X911751Y866351D01*
X911389Y863600D01*
X911751Y860848D01*
X912813Y858285D01*
X914503Y856083D01*
X916704Y854393D01*
X919268Y853331D01*
X922020Y852969D01*
X924771Y853331D01*
X927336Y854393D01*
X929537Y856083D01*
X931227Y858285D01*
X932289Y860848D01*
X932651Y863600D01*
X932289Y866351D01*
X931227Y868915D01*
X929537Y871117D01*
X927336Y872807D01*
X924771Y873869D01*
X922020Y874231D01*
D02*
G37*
G36*
X1238250Y842010D02*
X1229056D01*
X1229251Y840528D01*
X1230313Y837964D01*
X1232003Y835763D01*
X1234204Y834073D01*
X1236768Y833011D01*
X1238250Y832816D01*
Y842010D01*
D02*
G37*
G36*
X1199260Y853820D02*
X1178180D01*
Y832740D01*
X1199260D01*
Y853820D01*
D02*
G37*
G36*
X1249984Y842010D02*
X1240790D01*
Y832816D01*
X1242271Y833011D01*
X1244836Y834073D01*
X1247037Y835763D01*
X1248727Y837964D01*
X1249789Y840528D01*
X1249984Y842010D01*
D02*
G37*
G36*
X1240790Y853744D02*
Y844550D01*
X1249984D01*
X1249789Y846031D01*
X1248727Y848596D01*
X1247037Y850797D01*
X1244836Y852487D01*
X1242271Y853549D01*
X1240790Y853744D01*
D02*
G37*
G36*
X1238250D02*
X1236768Y853549D01*
X1234204Y852487D01*
X1232003Y850797D01*
X1230313Y848596D01*
X1229251Y846031D01*
X1229056Y844550D01*
X1238250D01*
Y853744D01*
D02*
G37*
G36*
Y879144D02*
X1236768Y878949D01*
X1234204Y877887D01*
X1232003Y876197D01*
X1230313Y873996D01*
X1229251Y871432D01*
X1229056Y869950D01*
X1238250D01*
Y879144D01*
D02*
G37*
G36*
Y912164D02*
X1236768Y911969D01*
X1234204Y910907D01*
X1232003Y909217D01*
X1230313Y907016D01*
X1229251Y904452D01*
X1229056Y902970D01*
X1238250D01*
Y912164D01*
D02*
G37*
G36*
X1249984Y900430D02*
X1240790D01*
Y891236D01*
X1242271Y891431D01*
X1244836Y892493D01*
X1247037Y894183D01*
X1248727Y896385D01*
X1249789Y898949D01*
X1249984Y900430D01*
D02*
G37*
G36*
X1240790Y912164D02*
Y902970D01*
X1249984D01*
X1249789Y904452D01*
X1248727Y907016D01*
X1247037Y909217D01*
X1244836Y910907D01*
X1242271Y911969D01*
X1240790Y912164D01*
D02*
G37*
G36*
X1074420Y925031D02*
X1071668Y924669D01*
X1069105Y923607D01*
X1066903Y921917D01*
X1065213Y919715D01*
X1064151Y917151D01*
X1063789Y914400D01*
X1064151Y911648D01*
X1065213Y909084D01*
X1066903Y906883D01*
X1069105Y905193D01*
X1071668Y904131D01*
X1074420Y903769D01*
X1077171Y904131D01*
X1079735Y905193D01*
X1081937Y906883D01*
X1083627Y909084D01*
X1084689Y911648D01*
X1085051Y914400D01*
X1084689Y917151D01*
X1083627Y919715D01*
X1081937Y921917D01*
X1079735Y923607D01*
X1077171Y924669D01*
X1074420Y925031D01*
D02*
G37*
G36*
X922020D02*
X919268Y924669D01*
X916704Y923607D01*
X914503Y921917D01*
X912813Y919715D01*
X911751Y917151D01*
X911389Y914400D01*
X911751Y911648D01*
X912813Y909084D01*
X914503Y906883D01*
X916704Y905193D01*
X919268Y904131D01*
X922020Y903769D01*
X924771Y904131D01*
X927336Y905193D01*
X929537Y906883D01*
X931227Y909084D01*
X932289Y911648D01*
X932651Y914400D01*
X932289Y917151D01*
X931227Y919715D01*
X929537Y921917D01*
X927336Y923607D01*
X924771Y924669D01*
X922020Y925031D01*
D02*
G37*
G36*
X1238250Y900430D02*
X1229056D01*
X1229251Y898949D01*
X1230313Y896385D01*
X1232003Y894183D01*
X1234204Y892493D01*
X1236768Y891431D01*
X1238250Y891236D01*
Y900430D01*
D02*
G37*
G36*
X922020Y899631D02*
X919268Y899269D01*
X916704Y898207D01*
X914503Y896517D01*
X912813Y894315D01*
X911751Y891751D01*
X911389Y889000D01*
X911751Y886248D01*
X912813Y883684D01*
X914503Y881483D01*
X916704Y879793D01*
X919268Y878731D01*
X922020Y878369D01*
X924771Y878731D01*
X927336Y879793D01*
X929537Y881483D01*
X931227Y883684D01*
X932289Y886248D01*
X932651Y889000D01*
X932289Y891751D01*
X931227Y894315D01*
X929537Y896517D01*
X927336Y898207D01*
X924771Y899269D01*
X922020Y899631D01*
D02*
G37*
G36*
X1240790Y879144D02*
Y869950D01*
X1249984D01*
X1249789Y871432D01*
X1248727Y873996D01*
X1247037Y876197D01*
X1244836Y877887D01*
X1242271Y878949D01*
X1240790Y879144D01*
D02*
G37*
G36*
X1074420Y899631D02*
X1071668Y899269D01*
X1069105Y898207D01*
X1066903Y896517D01*
X1065213Y894315D01*
X1064151Y891751D01*
X1063789Y889000D01*
X1064151Y886248D01*
X1065213Y883684D01*
X1066903Y881483D01*
X1069105Y879793D01*
X1071668Y878731D01*
X1074420Y878369D01*
X1077171Y878731D01*
X1079735Y879793D01*
X1081937Y881483D01*
X1083627Y883684D01*
X1084689Y886248D01*
X1085051Y889000D01*
X1084689Y891751D01*
X1083627Y894315D01*
X1081937Y896517D01*
X1079735Y898207D01*
X1077171Y899269D01*
X1074420Y899631D01*
D02*
G37*
G36*
X1199260Y912240D02*
X1178180D01*
Y891160D01*
X1199260D01*
Y912240D01*
D02*
G37*
G36*
X1214120Y912331D02*
X1211368Y911969D01*
X1208804Y910907D01*
X1206603Y909217D01*
X1204913Y907016D01*
X1203851Y904452D01*
X1203489Y901700D01*
X1203851Y898949D01*
X1204913Y896385D01*
X1206603Y894183D01*
X1208804Y892493D01*
X1211368Y891431D01*
X1214120Y891069D01*
X1216871Y891431D01*
X1219436Y892493D01*
X1221637Y894183D01*
X1223327Y896385D01*
X1224389Y898949D01*
X1224751Y901700D01*
X1224389Y904452D01*
X1223327Y907016D01*
X1221637Y909217D01*
X1219436Y910907D01*
X1216871Y911969D01*
X1214120Y912331D01*
D02*
G37*
%LPD*%
D10*
X1230000Y600000D02*
D03*
Y1050000D02*
D03*
X650000D02*
D03*
Y600000D02*
D03*
D11*
X1074420Y635000D02*
D03*
X922020D02*
D03*
D12*
X1074420Y660400D02*
D03*
Y685800D02*
D03*
Y711200D02*
D03*
Y736600D02*
D03*
Y762000D02*
D03*
Y787400D02*
D03*
Y812800D02*
D03*
Y838200D02*
D03*
Y863600D02*
D03*
Y889000D02*
D03*
Y914400D02*
D03*
Y939800D02*
D03*
Y965200D02*
D03*
Y990600D02*
D03*
X1239520Y675640D02*
D03*
Y650240D02*
D03*
X1214120Y675640D02*
D03*
Y650240D02*
D03*
X1188720Y675640D02*
D03*
X922020Y660400D02*
D03*
Y685800D02*
D03*
Y711200D02*
D03*
Y736600D02*
D03*
Y762000D02*
D03*
Y787400D02*
D03*
Y812800D02*
D03*
Y838200D02*
D03*
Y863600D02*
D03*
Y889000D02*
D03*
Y914400D02*
D03*
Y939800D02*
D03*
Y965200D02*
D03*
Y990600D02*
D03*
X1239520Y739140D02*
D03*
Y713740D02*
D03*
X1214120Y739140D02*
D03*
Y713740D02*
D03*
X1188720Y739140D02*
D03*
X1239520Y998220D02*
D03*
Y972820D02*
D03*
X1214120Y998220D02*
D03*
Y972820D02*
D03*
X1188720Y998220D02*
D03*
X1239520Y927100D02*
D03*
Y901700D02*
D03*
X1214120Y927100D02*
D03*
Y901700D02*
D03*
X1188720Y927100D02*
D03*
X1239520Y868680D02*
D03*
Y843280D02*
D03*
X1214120Y868680D02*
D03*
Y843280D02*
D03*
X1188720Y868680D02*
D03*
X1239520Y810260D02*
D03*
Y784860D02*
D03*
X1214120Y810260D02*
D03*
Y784860D02*
D03*
X1188720Y810260D02*
D03*
D13*
Y650240D02*
D03*
Y713740D02*
D03*
Y972820D02*
D03*
Y901700D02*
D03*
Y843280D02*
D03*
Y784860D02*
D03*
D14*
X825500Y762000D02*
D03*
X647700D02*
D03*
D15*
X825500Y787400D02*
D03*
Y838200D02*
D03*
Y863600D02*
D03*
Y889000D02*
D03*
Y914400D02*
D03*
Y939800D02*
D03*
Y965200D02*
D03*
Y990600D02*
D03*
Y812800D02*
D03*
X647700Y787400D02*
D03*
Y838200D02*
D03*
Y863600D02*
D03*
Y889000D02*
D03*
Y914400D02*
D03*
Y939800D02*
D03*
Y965200D02*
D03*
Y990600D02*
D03*
Y812800D02*
D03*
M02*
