G04 Layer_Color=8388736*
%FSLAX44Y44*%
%MOMM*%
%TF.FileFunction,Soldermask,Top*%
%TF.Part,Single*%
G01*
G75*
%TA.AperFunction,ComponentPad*%
%ADD20C,1.7272*%
%ADD21R,1.8032X1.8032*%
%ADD22C,1.8032*%
%ADD23R,1.8032X1.8032*%
%ADD24R,1.7032X1.7032*%
%ADD25C,1.7032*%
D20*
X1230000Y600000D02*
D03*
Y1050000D02*
D03*
X650000D02*
D03*
Y600000D02*
D03*
D21*
X1074420Y635000D02*
D03*
X922020D02*
D03*
D22*
X1074420Y660400D02*
D03*
Y685800D02*
D03*
Y711200D02*
D03*
Y736600D02*
D03*
Y762000D02*
D03*
Y787400D02*
D03*
Y812800D02*
D03*
Y838200D02*
D03*
Y863600D02*
D03*
Y889000D02*
D03*
Y914400D02*
D03*
Y939800D02*
D03*
Y965200D02*
D03*
Y990600D02*
D03*
X1239520Y675640D02*
D03*
Y650240D02*
D03*
X1214120Y675640D02*
D03*
Y650240D02*
D03*
X1188720Y675640D02*
D03*
X922020Y660400D02*
D03*
Y685800D02*
D03*
Y711200D02*
D03*
Y736600D02*
D03*
Y762000D02*
D03*
Y787400D02*
D03*
Y812800D02*
D03*
Y838200D02*
D03*
Y863600D02*
D03*
Y889000D02*
D03*
Y914400D02*
D03*
Y939800D02*
D03*
Y965200D02*
D03*
Y990600D02*
D03*
X1239520Y739140D02*
D03*
Y713740D02*
D03*
X1214120Y739140D02*
D03*
Y713740D02*
D03*
X1188720Y739140D02*
D03*
X1239520Y998220D02*
D03*
Y972820D02*
D03*
X1214120Y998220D02*
D03*
Y972820D02*
D03*
X1188720Y998220D02*
D03*
X1239520Y927100D02*
D03*
Y901700D02*
D03*
X1214120Y927100D02*
D03*
Y901700D02*
D03*
X1188720Y927100D02*
D03*
X1239520Y868680D02*
D03*
Y843280D02*
D03*
X1214120Y868680D02*
D03*
Y843280D02*
D03*
X1188720Y868680D02*
D03*
X1239520Y810260D02*
D03*
Y784860D02*
D03*
X1214120Y810260D02*
D03*
Y784860D02*
D03*
X1188720Y810260D02*
D03*
D23*
Y650240D02*
D03*
Y713740D02*
D03*
Y972820D02*
D03*
Y901700D02*
D03*
Y843280D02*
D03*
Y784860D02*
D03*
D24*
X825500Y762000D02*
D03*
X647700D02*
D03*
D25*
X825500Y787400D02*
D03*
Y838200D02*
D03*
Y863600D02*
D03*
Y889000D02*
D03*
Y914400D02*
D03*
Y939800D02*
D03*
Y965200D02*
D03*
Y990600D02*
D03*
Y812800D02*
D03*
X647700Y787400D02*
D03*
Y838200D02*
D03*
Y863600D02*
D03*
Y889000D02*
D03*
Y914400D02*
D03*
Y939800D02*
D03*
Y965200D02*
D03*
Y990600D02*
D03*
Y812800D02*
D03*
%TF.MD5,011702b986ac130f669904d9d1765d6c*%
M02*
