G04 Layer_Color=65535*
%FSLAX44Y44*%
%MOMM*%
%TF.FileFunction,Legend,Top*%
%TF.Part,Single*%
G01*
G75*
%TA.AperFunction,NonConductor*%
%ADD17C,0.2000*%
%ADD18C,0.2540*%
%ADD19C,0.1000*%
G36*
X794440Y587187D02*
X791791D01*
X792824Y592135D01*
X787875D01*
X786842Y587187D01*
X784193D01*
X786875Y600000D01*
X789508D01*
X788308Y594268D01*
X793273D01*
X794473Y600000D01*
X797106D01*
X794440Y587187D01*
D02*
G37*
G36*
X690732Y700752D02*
X690749Y700769D01*
X690798Y700802D01*
X690865Y700869D01*
X690965Y700952D01*
X691098Y701052D01*
X691248Y701186D01*
X691432Y701302D01*
X691632Y701452D01*
X691848Y701602D01*
X692098Y701752D01*
X692365Y701902D01*
X692631Y702052D01*
X693248Y702352D01*
X693898Y702602D01*
Y700369D01*
X693881D01*
X693848Y700352D01*
X693798Y700336D01*
X693731Y700303D01*
X693648Y700269D01*
X693531Y700219D01*
X693281Y700102D01*
X692981Y699953D01*
X692631Y699736D01*
X692248Y699486D01*
X691832Y699186D01*
X691815Y699169D01*
X691782Y699153D01*
X691732Y699103D01*
X691648Y699036D01*
X691548Y698953D01*
X691448Y698836D01*
X691215Y698603D01*
X690948Y698286D01*
X690698Y697936D01*
X690465Y697553D01*
X690365Y697337D01*
X690282Y697120D01*
X688282D01*
Y710000D01*
X690732D01*
Y700752D01*
D02*
G37*
G36*
X700546Y710217D02*
X700679D01*
X700829Y710183D01*
X701013Y710150D01*
X701212Y710117D01*
X701446Y710050D01*
X701679Y709983D01*
X701912Y709883D01*
X702162Y709767D01*
X702429Y709633D01*
X702679Y709467D01*
X702912Y709267D01*
X703162Y709050D01*
X703379Y708800D01*
X703395Y708784D01*
X703429Y708734D01*
X703479Y708650D01*
X703562Y708517D01*
X703645Y708350D01*
X703728Y708150D01*
X703845Y707900D01*
X703945Y707617D01*
X704045Y707284D01*
X704145Y706917D01*
X704245Y706501D01*
X704328Y706034D01*
X704412Y705518D01*
X704462Y704951D01*
X704495Y704335D01*
X704512Y703668D01*
Y703652D01*
Y703618D01*
Y703585D01*
Y703502D01*
Y703418D01*
X704495Y703318D01*
Y703068D01*
X704478Y702768D01*
X704445Y702435D01*
X704412Y702052D01*
X704362Y701652D01*
X704295Y701236D01*
X704212Y700802D01*
X704112Y700352D01*
X703979Y699936D01*
X703845Y699519D01*
X703679Y699119D01*
X703479Y698753D01*
X703262Y698436D01*
X703245Y698420D01*
X703212Y698386D01*
X703162Y698320D01*
X703079Y698236D01*
X702962Y698136D01*
X702829Y698020D01*
X702679Y697903D01*
X702512Y697770D01*
X702312Y697653D01*
X702096Y697536D01*
X701862Y697420D01*
X701596Y697320D01*
X701329Y697237D01*
X701029Y697170D01*
X700696Y697137D01*
X700363Y697120D01*
X700179D01*
X700046Y697137D01*
X699896Y697153D01*
X699713Y697187D01*
X699513Y697237D01*
X699296Y697287D01*
X699063Y697353D01*
X698830Y697437D01*
X698580Y697553D01*
X698347Y697686D01*
X698113Y697837D01*
X697880Y698020D01*
X697647Y698220D01*
X697447Y698453D01*
X697430Y698470D01*
X697397Y698520D01*
X697330Y698620D01*
X697247Y698753D01*
X697164Y698936D01*
X697047Y699153D01*
X696930Y699403D01*
X696814Y699703D01*
X696697Y700036D01*
X696597Y700419D01*
X696480Y700852D01*
X696397Y701336D01*
X696314Y701852D01*
X696247Y702419D01*
X696214Y703018D01*
X696197Y703685D01*
Y703702D01*
Y703718D01*
Y703768D01*
Y703852D01*
Y703935D01*
Y704035D01*
X696214Y704285D01*
X696230Y704585D01*
X696264Y704918D01*
X696297Y705301D01*
X696347Y705701D01*
X696414Y706134D01*
X696514Y706568D01*
X696614Y707001D01*
X696730Y707434D01*
X696880Y707851D01*
X697047Y708251D01*
X697247Y708617D01*
X697464Y708934D01*
X697480Y708950D01*
X697514Y708984D01*
X697563Y709050D01*
X697647Y709134D01*
X697763Y709233D01*
X697880Y709350D01*
X698047Y709467D01*
X698213Y709583D01*
X698413Y709700D01*
X698630Y709817D01*
X698863Y709933D01*
X699130Y710033D01*
X699396Y710117D01*
X699696Y710183D01*
X700030Y710217D01*
X700363Y710233D01*
X700446D01*
X700546Y710217D01*
D02*
G37*
G36*
X797806Y620217D02*
X798006Y620200D01*
X798239Y620167D01*
X798505Y620133D01*
X798789Y620100D01*
X799389Y619967D01*
X799688Y619867D01*
X800005Y619767D01*
X800305Y619633D01*
X800605Y619483D01*
X800888Y619317D01*
X801138Y619117D01*
X801155Y619100D01*
X801188Y619067D01*
X801255Y619000D01*
X801338Y618900D01*
X801455Y618784D01*
X801555Y618650D01*
X801688Y618484D01*
X801821Y618284D01*
X801955Y618067D01*
X802088Y617834D01*
X802221Y617567D01*
X802338Y617267D01*
X802455Y616951D01*
X802554Y616601D01*
X802621Y616234D01*
X802688Y615851D01*
X800172Y615601D01*
Y615618D01*
X800155Y615651D01*
X800138Y615718D01*
X800122Y615801D01*
X800105Y615918D01*
X800072Y616034D01*
X799972Y616301D01*
X799855Y616618D01*
X799688Y616917D01*
X799489Y617217D01*
X799255Y617467D01*
X799222Y617484D01*
X799122Y617551D01*
X798972Y617651D01*
X798755Y617751D01*
X798489Y617867D01*
X798172Y617951D01*
X797806Y618017D01*
X797389Y618050D01*
X797272D01*
X797189Y618034D01*
X797073D01*
X796956Y618017D01*
X796689Y617984D01*
X796373Y617917D01*
X796073Y617834D01*
X795773Y617701D01*
X795506Y617534D01*
X795473Y617517D01*
X795406Y617434D01*
X795306Y617334D01*
X795173Y617184D01*
X795056Y617001D01*
X794956Y616784D01*
X794890Y616551D01*
X794856Y616301D01*
Y616284D01*
Y616218D01*
X794873Y616134D01*
X794890Y616034D01*
X794923Y615901D01*
X794973Y615768D01*
X795040Y615634D01*
X795123Y615518D01*
X795140Y615501D01*
X795173Y615468D01*
X795240Y615401D01*
X795340Y615335D01*
X795473Y615251D01*
X795623Y615151D01*
X795823Y615051D01*
X796056Y614968D01*
X796073Y614951D01*
X796156Y614935D01*
X796206Y614918D01*
X796289Y614901D01*
X796373Y614868D01*
X796489Y614835D01*
X796606Y614801D01*
X796756Y614751D01*
X796923Y614701D01*
X797122Y614651D01*
X797339Y614601D01*
X797572Y614535D01*
X797839Y614468D01*
X798122Y614401D01*
X798139D01*
X798206Y614385D01*
X798322Y614352D01*
X798456Y614301D01*
X798622Y614252D01*
X798822Y614202D01*
X799039Y614135D01*
X799272Y614052D01*
X799755Y613868D01*
X800238Y613652D01*
X800455Y613535D01*
X800672Y613402D01*
X800872Y613268D01*
X801038Y613135D01*
X801055Y613118D01*
X801088Y613085D01*
X801138Y613018D01*
X801221Y612952D01*
X801305Y612835D01*
X801405Y612719D01*
X801505Y612569D01*
X801621Y612402D01*
X801721Y612235D01*
X801838Y612035D01*
X802021Y611586D01*
X802105Y611352D01*
X802155Y611086D01*
X802188Y610819D01*
X802205Y610536D01*
Y610519D01*
Y610486D01*
Y610436D01*
X802188Y610369D01*
X802171Y610186D01*
X802138Y609953D01*
X802071Y609669D01*
X801971Y609369D01*
X801838Y609036D01*
X801655Y608720D01*
Y608703D01*
X801621Y608686D01*
X801555Y608570D01*
X801421Y608420D01*
X801255Y608236D01*
X801021Y608020D01*
X800755Y607803D01*
X800438Y607587D01*
X800072Y607403D01*
X800055D01*
X800022Y607387D01*
X799972Y607353D01*
X799889Y607337D01*
X799789Y607303D01*
X799655Y607253D01*
X799522Y607220D01*
X799355Y607170D01*
X799189Y607137D01*
X798989Y607103D01*
X798572Y607020D01*
X798089Y606970D01*
X797556Y606953D01*
X797322D01*
X797156Y606970D01*
X796956Y606987D01*
X796723Y607003D01*
X796473Y607037D01*
X796189Y607087D01*
X795606Y607220D01*
X795306Y607303D01*
X795006Y607403D01*
X794706Y607520D01*
X794423Y607670D01*
X794157Y607836D01*
X793923Y608020D01*
X793907Y608036D01*
X793873Y608070D01*
X793807Y608120D01*
X793723Y608203D01*
X793640Y608320D01*
X793540Y608436D01*
X793423Y608586D01*
X793307Y608769D01*
X793190Y608953D01*
X793074Y609169D01*
X792974Y609403D01*
X792874Y609653D01*
X792790Y609919D01*
X792707Y610202D01*
X792657Y610519D01*
X792640Y610836D01*
X795223Y610936D01*
Y610919D01*
Y610886D01*
X795240Y610836D01*
X795256Y610769D01*
X795306Y610602D01*
X795373Y610386D01*
X795473Y610153D01*
X795590Y609919D01*
X795756Y609703D01*
X795939Y609519D01*
X795973Y609503D01*
X796040Y609453D01*
X796173Y609386D01*
X796356Y609303D01*
X796573Y609219D01*
X796856Y609153D01*
X797189Y609103D01*
X797572Y609086D01*
X797756D01*
X797856Y609103D01*
X797956D01*
X798222Y609136D01*
X798505Y609203D01*
X798789Y609286D01*
X799089Y609403D01*
X799339Y609553D01*
X799355Y609569D01*
X799405Y609603D01*
X799472Y609669D01*
X799539Y609769D01*
X799605Y609886D01*
X799672Y610019D01*
X799722Y610169D01*
X799738Y610353D01*
Y610369D01*
Y610419D01*
X799722Y610519D01*
X799688Y610619D01*
X799639Y610736D01*
X799572Y610869D01*
X799489Y611002D01*
X799355Y611136D01*
X799339Y611152D01*
X799305Y611169D01*
X799255Y611202D01*
X799189Y611236D01*
X799105Y611286D01*
X799005Y611336D01*
X798872Y611385D01*
X798739Y611452D01*
X798572Y611519D01*
X798372Y611586D01*
X798156Y611669D01*
X797906Y611735D01*
X797639Y611819D01*
X797322Y611902D01*
X796989Y611985D01*
X796973D01*
X796906Y612002D01*
X796806Y612035D01*
X796673Y612069D01*
X796523Y612102D01*
X796339Y612152D01*
X796140Y612202D01*
X795939Y612269D01*
X795490Y612419D01*
X795023Y612569D01*
X794590Y612735D01*
X794390Y612835D01*
X794207Y612919D01*
X794190D01*
X794173Y612935D01*
X794123Y612968D01*
X794057Y613002D01*
X793890Y613118D01*
X793690Y613268D01*
X793457Y613452D01*
X793223Y613685D01*
X793007Y613935D01*
X792790Y614235D01*
Y614252D01*
X792774Y614268D01*
X792740Y614318D01*
X792707Y614385D01*
X792674Y614468D01*
X792624Y614551D01*
X792524Y614801D01*
X792440Y615085D01*
X792357Y615434D01*
X792290Y615834D01*
X792274Y616268D01*
Y616284D01*
Y616318D01*
Y616384D01*
X792290Y616451D01*
Y616551D01*
X792307Y616668D01*
X792357Y616951D01*
X792424Y617267D01*
X792540Y617617D01*
X792690Y617984D01*
X792890Y618350D01*
Y618367D01*
X792924Y618384D01*
X792957Y618434D01*
X793007Y618500D01*
X793140Y618667D01*
X793340Y618884D01*
X793590Y619117D01*
X793873Y619350D01*
X794223Y619567D01*
X794623Y619767D01*
X794640D01*
X794673Y619783D01*
X794740Y619817D01*
X794823Y619833D01*
X794940Y619867D01*
X795056Y619917D01*
X795223Y619950D01*
X795390Y620000D01*
X795590Y620050D01*
X795789Y620083D01*
X796023Y620117D01*
X796273Y620167D01*
X796806Y620217D01*
X797406Y620233D01*
X797639D01*
X797806Y620217D01*
D02*
G37*
G36*
X802904Y589319D02*
X806653D01*
X806220Y587187D01*
X796123D01*
X796556Y589319D01*
X800255D01*
X802488Y600000D01*
X805137D01*
X802904Y589319D01*
D02*
G37*
G36*
X817334Y587187D02*
X807820D01*
X808270Y589319D01*
X815135D01*
X815768Y592252D01*
X809103D01*
X809553Y594385D01*
X816234D01*
X817001Y597867D01*
X809536D01*
X809986Y600000D01*
X820000D01*
X817334Y587187D01*
D02*
G37*
G36*
X733088Y710200D02*
X733321Y710167D01*
X733571Y710117D01*
X733854Y710050D01*
X734154Y709950D01*
X734437Y709817D01*
X734471Y709800D01*
X734554Y709733D01*
X734687Y709650D01*
X734837Y709517D01*
X735021Y709350D01*
X735204Y709150D01*
X735354Y708934D01*
X735504Y708667D01*
Y708650D01*
X735520Y708634D01*
X735537Y708584D01*
X735554Y708534D01*
X735604Y708367D01*
X735654Y708134D01*
X735720Y707834D01*
X735770Y707484D01*
X735804Y707067D01*
X735820Y706601D01*
Y700719D01*
X733371D01*
Y704985D01*
Y705001D01*
Y705068D01*
Y705168D01*
Y705301D01*
Y705451D01*
Y705635D01*
X733354Y706018D01*
X733338Y706434D01*
X733321Y706834D01*
X733304Y707017D01*
X733288Y707167D01*
X733254Y707301D01*
X733238Y707401D01*
Y707417D01*
X733204Y707467D01*
X733171Y707551D01*
X733121Y707651D01*
X733054Y707751D01*
X732971Y707867D01*
X732871Y707984D01*
X732754Y708084D01*
X732738Y708101D01*
X732688Y708117D01*
X732605Y708167D01*
X732505Y708201D01*
X732371Y708251D01*
X732221Y708300D01*
X732038Y708317D01*
X731855Y708334D01*
X731755D01*
X731621Y708317D01*
X731471Y708284D01*
X731305Y708251D01*
X731105Y708201D01*
X730922Y708117D01*
X730722Y708000D01*
X730705Y707984D01*
X730638Y707934D01*
X730555Y707867D01*
X730455Y707767D01*
X730338Y707634D01*
X730222Y707501D01*
X730122Y707334D01*
X730039Y707151D01*
X730022Y707117D01*
Y707084D01*
X730005Y707034D01*
X729988Y706967D01*
X729972Y706884D01*
X729955Y706768D01*
X729939Y706634D01*
X729922Y706484D01*
X729905Y706301D01*
Y706101D01*
X729889Y705868D01*
X729872Y705601D01*
X729855Y705318D01*
Y704985D01*
Y704635D01*
Y700719D01*
X727406D01*
Y710000D01*
X729689D01*
Y708617D01*
X729705Y708650D01*
X729789Y708734D01*
X729889Y708884D01*
X730055Y709050D01*
X730238Y709233D01*
X730472Y709434D01*
X730722Y709617D01*
X731022Y709800D01*
X731038D01*
X731055Y709817D01*
X731105Y709833D01*
X731155Y709867D01*
X731321Y709933D01*
X731538Y710000D01*
X731805Y710083D01*
X732105Y710150D01*
X732421Y710200D01*
X732754Y710217D01*
X732904D01*
X733088Y710200D01*
D02*
G37*
G36*
X721157Y713766D02*
X721357Y713749D01*
X721574Y713732D01*
X721807Y713716D01*
X722074Y713682D01*
X722624Y713582D01*
X723174Y713432D01*
X723440Y713349D01*
X723690Y713232D01*
X723923Y713116D01*
X724123Y712966D01*
X724140Y712949D01*
X724173Y712933D01*
X724207Y712883D01*
X724273Y712816D01*
X724357Y712733D01*
X724440Y712649D01*
X724606Y712399D01*
X724790Y712100D01*
X724956Y711750D01*
X725023Y711550D01*
X725056Y711350D01*
X725090Y711133D01*
X725106Y710900D01*
Y710883D01*
Y710816D01*
Y710733D01*
X725090Y710617D01*
X722290Y710950D01*
Y710966D01*
X722274Y711033D01*
X722257Y711116D01*
X722224Y711216D01*
X722124Y711433D01*
X722057Y711550D01*
X721974Y711633D01*
X721957Y711650D01*
X721907Y711666D01*
X721824Y711716D01*
X721707Y711766D01*
X721557Y711816D01*
X721357Y711850D01*
X721141Y711883D01*
X720874Y711899D01*
X720707D01*
X720541Y711883D01*
X720324Y711866D01*
X720091Y711833D01*
X719858Y711766D01*
X719624Y711700D01*
X719425Y711600D01*
X719408Y711583D01*
X719374Y711566D01*
X719308Y711516D01*
X719241Y711450D01*
X719158Y711350D01*
X719075Y711250D01*
X718991Y711116D01*
X718925Y710966D01*
Y710950D01*
X718908Y710900D01*
X718891Y710833D01*
X718858Y710716D01*
X718841Y710566D01*
X718825Y710367D01*
X718808Y710133D01*
Y709850D01*
Y708484D01*
X718825Y708500D01*
X718858Y708550D01*
X718925Y708617D01*
X719008Y708717D01*
X719125Y708834D01*
X719241Y708967D01*
X719408Y709100D01*
X719575Y709233D01*
X719774Y709383D01*
X719974Y709517D01*
X720208Y709650D01*
X720458Y709767D01*
X720724Y709867D01*
X721007Y709933D01*
X721291Y709983D01*
X721607Y710000D01*
X721691D01*
X721791Y709983D01*
X721907Y709967D01*
X722074Y709950D01*
X722257Y709917D01*
X722457Y709867D01*
X722674Y709800D01*
X722907Y709717D01*
X723140Y709617D01*
X723390Y709483D01*
X723640Y709333D01*
X723873Y709150D01*
X724123Y708934D01*
X724340Y708700D01*
X724557Y708417D01*
X724573Y708400D01*
X724590Y708367D01*
X724640Y708284D01*
X724690Y708201D01*
X724756Y708067D01*
X724823Y707917D01*
X724906Y707751D01*
X724973Y707567D01*
X725056Y707351D01*
X725140Y707117D01*
X725206Y706851D01*
X725273Y706584D01*
X725323Y706284D01*
X725373Y705984D01*
X725390Y705651D01*
X725406Y705318D01*
Y705285D01*
Y705218D01*
Y705101D01*
X725390Y704935D01*
X725373Y704735D01*
X725340Y704518D01*
X725306Y704268D01*
X725273Y704001D01*
X725140Y703418D01*
X725040Y703118D01*
X724940Y702835D01*
X724807Y702535D01*
X724657Y702252D01*
X724490Y702002D01*
X724290Y701752D01*
X724273Y701736D01*
X724240Y701702D01*
X724173Y701636D01*
X724090Y701552D01*
X723973Y701469D01*
X723840Y701352D01*
X723690Y701236D01*
X723523Y701119D01*
X723324Y701002D01*
X723124Y700902D01*
X722890Y700786D01*
X722640Y700702D01*
X722390Y700619D01*
X722107Y700552D01*
X721807Y700519D01*
X721507Y700502D01*
X721424D01*
X721341Y700519D01*
X721224D01*
X721074Y700552D01*
X720908Y700586D01*
X720707Y700636D01*
X720508Y700686D01*
X720291Y700769D01*
X720058Y700869D01*
X719824Y701002D01*
X719575Y701136D01*
X719341Y701319D01*
X719108Y701519D01*
X718875Y701752D01*
X718658Y702019D01*
Y700719D01*
X716359D01*
Y709067D01*
Y709084D01*
Y709134D01*
Y709217D01*
Y709333D01*
Y709467D01*
X716375Y709633D01*
X716392Y709983D01*
X716425Y710383D01*
X716475Y710783D01*
X716542Y711166D01*
X716592Y711333D01*
X716642Y711500D01*
Y711516D01*
X716659Y711533D01*
X716692Y711633D01*
X716758Y711783D01*
X716842Y711966D01*
X716942Y712166D01*
X717075Y712383D01*
X717225Y712599D01*
X717408Y712783D01*
X717425Y712799D01*
X717492Y712866D01*
X717608Y712949D01*
X717758Y713049D01*
X717942Y713166D01*
X718158Y713282D01*
X718425Y713399D01*
X718708Y713516D01*
X718725D01*
X718741Y713532D01*
X718791D01*
X718858Y713549D01*
X718941Y713582D01*
X719025Y713599D01*
X719275Y713649D01*
X719575Y713699D01*
X719924Y713732D01*
X720324Y713766D01*
X720774Y713782D01*
X720991D01*
X721157Y713766D01*
D02*
G37*
G36*
X900000Y660000D02*
X660000D01*
Y690000D01*
X900000D01*
Y660000D01*
D02*
G37*
G36*
X714759Y709983D02*
Y709950D01*
X714742Y709867D01*
X714726Y709783D01*
X714709Y709667D01*
X714676Y709533D01*
X714642Y709383D01*
X714609Y709217D01*
X714492Y708834D01*
X714342Y708417D01*
X714159Y707984D01*
X713926Y707551D01*
X713909Y707534D01*
X713893Y707501D01*
X713843Y707434D01*
X713776Y707334D01*
X713693Y707217D01*
X713593Y707084D01*
X713476Y706917D01*
X713326Y706734D01*
X713143Y706518D01*
X712943Y706284D01*
X712726Y706034D01*
X712476Y705751D01*
X712193Y705468D01*
X711877Y705151D01*
X711543Y704818D01*
X711177Y704468D01*
X711160Y704451D01*
X711110Y704401D01*
X711027Y704318D01*
X710910Y704218D01*
X710777Y704085D01*
X710627Y703952D01*
X710294Y703618D01*
X709944Y703268D01*
X709610Y702935D01*
X709460Y702768D01*
X709344Y702619D01*
X709227Y702485D01*
X709144Y702369D01*
Y702352D01*
X709127Y702335D01*
X709061Y702235D01*
X708977Y702085D01*
X708877Y701902D01*
X708794Y701669D01*
X708711Y701419D01*
X708644Y701152D01*
X708627Y700869D01*
Y700852D01*
Y700836D01*
Y700736D01*
X708644Y700586D01*
X708677Y700403D01*
X708744Y700202D01*
X708811Y699986D01*
X708927Y699786D01*
X709077Y699603D01*
X709094Y699586D01*
X709161Y699536D01*
X709260Y699453D01*
X709394Y699369D01*
X709560Y699303D01*
X709777Y699219D01*
X710010Y699169D01*
X710294Y699153D01*
X710427D01*
X710560Y699169D01*
X710727Y699203D01*
X710927Y699269D01*
X711127Y699353D01*
X711327Y699469D01*
X711510Y699619D01*
X711526Y699636D01*
X711577Y699703D01*
X711660Y699819D01*
X711743Y699986D01*
X711826Y700202D01*
X711910Y700469D01*
X711976Y700786D01*
X712026Y701152D01*
X714476Y700919D01*
Y700902D01*
X714459Y700836D01*
X714443Y700719D01*
X714426Y700586D01*
X714392Y700419D01*
X714342Y700236D01*
X714293Y700019D01*
X714226Y699786D01*
X714043Y699319D01*
X713943Y699070D01*
X713809Y698836D01*
X713659Y698603D01*
X713493Y698386D01*
X713309Y698186D01*
X713110Y698003D01*
X713093Y697986D01*
X713059Y697970D01*
X712993Y697920D01*
X712909Y697870D01*
X712793Y697803D01*
X712660Y697720D01*
X712493Y697636D01*
X712310Y697553D01*
X712126Y697486D01*
X711893Y697403D01*
X711660Y697320D01*
X711410Y697253D01*
X711143Y697203D01*
X710843Y697153D01*
X710544Y697137D01*
X710227Y697120D01*
X710044D01*
X709910Y697137D01*
X709760Y697153D01*
X709560Y697170D01*
X709360Y697203D01*
X709144Y697253D01*
X708661Y697370D01*
X708411Y697453D01*
X708161Y697553D01*
X707927Y697670D01*
X707678Y697820D01*
X707461Y697970D01*
X707244Y698153D01*
X707228Y698170D01*
X707194Y698203D01*
X707144Y698253D01*
X707078Y698336D01*
X706994Y698436D01*
X706894Y698553D01*
X706811Y698686D01*
X706694Y698853D01*
X706594Y699036D01*
X706511Y699219D01*
X706328Y699653D01*
X706261Y699903D01*
X706211Y700153D01*
X706178Y700419D01*
X706161Y700702D01*
Y700719D01*
Y700736D01*
Y700786D01*
Y700852D01*
X706178Y701019D01*
X706195Y701236D01*
X706245Y701486D01*
X706294Y701769D01*
X706378Y702052D01*
X706478Y702352D01*
Y702369D01*
X706495Y702385D01*
X706544Y702485D01*
X706611Y702652D01*
X706711Y702852D01*
X706861Y703102D01*
X707028Y703368D01*
X707228Y703668D01*
X707461Y703985D01*
X707478Y704018D01*
X707544Y704085D01*
X707661Y704218D01*
X707828Y704401D01*
X708061Y704635D01*
X708327Y704918D01*
X708677Y705251D01*
X708861Y705434D01*
X709077Y705635D01*
X709094Y705651D01*
X709127Y705684D01*
X709177Y705734D01*
X709260Y705801D01*
X709460Y705984D01*
X709694Y706218D01*
X709944Y706451D01*
X710177Y706684D01*
X710394Y706884D01*
X710477Y706984D01*
X710544Y707051D01*
X710560Y707067D01*
X710593Y707117D01*
X710660Y707184D01*
X710727Y707267D01*
X710893Y707484D01*
X711043Y707717D01*
X706161D01*
Y710000D01*
X714759D01*
Y709983D01*
D02*
G37*
G36*
X682900Y709967D02*
Y709883D01*
X682884Y709733D01*
Y709550D01*
X682851Y709300D01*
X682834Y709017D01*
X682801Y708684D01*
X682751Y708334D01*
X682684Y707934D01*
X682617Y707517D01*
X682534Y707067D01*
X682417Y706601D01*
X682301Y706118D01*
X682167Y705618D01*
X682001Y705101D01*
X681817Y704585D01*
X681801Y704551D01*
X681768Y704468D01*
X681718Y704318D01*
X681634Y704118D01*
X681518Y703868D01*
X681401Y703602D01*
X681251Y703268D01*
X681084Y702935D01*
X680901Y702552D01*
X680684Y702169D01*
X680468Y701752D01*
X680218Y701336D01*
X679951Y700902D01*
X679668Y700469D01*
X679368Y700052D01*
X679052Y699636D01*
X684600D01*
Y697353D01*
X676219D01*
Y699136D01*
X676236Y699153D01*
X676269Y699186D01*
X676319Y699236D01*
X676402Y699319D01*
X676502Y699436D01*
X676602Y699569D01*
X676736Y699719D01*
X676885Y699886D01*
X677035Y700086D01*
X677202Y700303D01*
X677369Y700552D01*
X677569Y700819D01*
X677752Y701102D01*
X677952Y701402D01*
X678152Y701736D01*
X678352Y702085D01*
X678368Y702102D01*
X678402Y702169D01*
X678452Y702269D01*
X678518Y702419D01*
X678618Y702602D01*
X678718Y702802D01*
X678835Y703052D01*
X678952Y703318D01*
X679085Y703602D01*
X679218Y703918D01*
X679351Y704268D01*
X679485Y704618D01*
X679751Y705368D01*
X679985Y706168D01*
Y706184D01*
X680001Y706268D01*
X680035Y706384D01*
X680068Y706534D01*
X680118Y706718D01*
X680168Y706934D01*
X680218Y707184D01*
X680268Y707451D01*
X680318Y707734D01*
X680368Y708051D01*
X680451Y708684D01*
X680518Y709350D01*
X680535Y710000D01*
X682900D01*
Y709967D01*
D02*
G37*
G36*
X745018Y697187D02*
X742252D01*
X737137Y710000D01*
X739953D01*
X741086Y707084D01*
X746201D01*
X747267Y710000D01*
X750000D01*
X745018Y697187D01*
D02*
G37*
G36*
X660000Y690000D02*
X627460D01*
Y720000D01*
X660000D01*
Y690000D01*
D02*
G37*
G36*
X766187Y599983D02*
X766370Y599967D01*
X766603Y599917D01*
X766887Y599833D01*
X767153Y599733D01*
X767420Y599567D01*
X767670Y599350D01*
X767703Y599317D01*
X767770Y599234D01*
X767853Y599084D01*
X767970Y598884D01*
X768086Y598634D01*
X768170Y598317D01*
X768236Y597967D01*
X768270Y597584D01*
Y597567D01*
Y597484D01*
X768253Y597351D01*
X768236Y597267D01*
Y597167D01*
X768220Y597034D01*
X768186Y596901D01*
X768170Y596751D01*
X768136Y596567D01*
X768103Y596384D01*
X768053Y596168D01*
X768003Y595918D01*
X767953Y595668D01*
X766787Y590486D01*
X764287D01*
X765520Y596001D01*
Y596018D01*
X765537Y596051D01*
Y596101D01*
X765554Y596151D01*
X765587Y596318D01*
X765637Y596518D01*
X765687Y596734D01*
X765720Y596934D01*
X765737Y597101D01*
X765754Y597184D01*
Y597234D01*
Y597251D01*
Y597301D01*
X765737Y597367D01*
X765720Y597467D01*
X765687Y597584D01*
X765637Y597684D01*
X765570Y597801D01*
X765487Y597917D01*
X765470Y597934D01*
X765437Y597967D01*
X765370Y598000D01*
X765287Y598050D01*
X765187Y598117D01*
X765070Y598150D01*
X764937Y598184D01*
X764787Y598200D01*
X764671D01*
X764604Y598184D01*
X764421Y598150D01*
X764204Y598084D01*
X764187D01*
X764154Y598050D01*
X764087Y598034D01*
X764021Y597984D01*
X763821Y597850D01*
X763604Y597684D01*
X763587Y597667D01*
X763554Y597634D01*
X763488Y597584D01*
X763421Y597501D01*
X763238Y597317D01*
X763054Y597067D01*
X763038Y597051D01*
X763004Y597001D01*
X762971Y596934D01*
X762904Y596818D01*
X762838Y596701D01*
X762754Y596534D01*
X762671Y596368D01*
X762588Y596168D01*
Y596151D01*
X762554Y596084D01*
X762538Y595984D01*
X762488Y595851D01*
X762438Y595684D01*
X762388Y595468D01*
X762321Y595218D01*
X762254Y594918D01*
X761255Y590486D01*
X758755D01*
X760855Y599767D01*
X763188D01*
X762921Y598534D01*
X762938Y598550D01*
X762988Y598600D01*
X763054Y598667D01*
X763171Y598767D01*
X763304Y598867D01*
X763454Y599000D01*
X763637Y599133D01*
X763838Y599267D01*
X764054Y599400D01*
X764287Y599533D01*
X764554Y599667D01*
X764820Y599767D01*
X765104Y599867D01*
X765387Y599933D01*
X765687Y599983D01*
X766004Y600000D01*
X766104D01*
X766187Y599983D01*
D02*
G37*
G36*
X756073Y590486D02*
X753723D01*
X754107Y592269D01*
X754090Y592252D01*
X754040Y592185D01*
X753973Y592085D01*
X753873Y591952D01*
X753757Y591802D01*
X753607Y591636D01*
X753440Y591452D01*
X753257Y591252D01*
X753057Y591069D01*
X752840Y590886D01*
X752590Y590719D01*
X752340Y590569D01*
X752091Y590436D01*
X751824Y590336D01*
X751541Y590269D01*
X751257Y590252D01*
X751157D01*
X751057Y590269D01*
X750907Y590286D01*
X750741Y590319D01*
X750541Y590369D01*
X750324Y590436D01*
X750091Y590536D01*
X751057Y592585D01*
X751074D01*
X751124Y592569D01*
X751191Y592535D01*
X751274Y592519D01*
X751391Y592485D01*
X751507Y592469D01*
X751790Y592452D01*
X751907D01*
X752024Y592485D01*
X752190Y592519D01*
X752390Y592569D01*
X752624Y592668D01*
X752857Y592785D01*
X753107Y592952D01*
X753140Y592968D01*
X753223Y593035D01*
X753340Y593152D01*
X753490Y593302D01*
X753657Y593485D01*
X753823Y593718D01*
X754007Y593968D01*
X754157Y594268D01*
Y594285D01*
X754173Y594301D01*
X754190Y594351D01*
X754223Y594418D01*
X754257Y594518D01*
X754290Y594618D01*
X754340Y594751D01*
X754390Y594901D01*
X754456Y595068D01*
X754507Y595268D01*
X754573Y595468D01*
X754640Y595701D01*
X754706Y595968D01*
X754773Y596251D01*
X754840Y596551D01*
X754906Y596867D01*
X755506Y599767D01*
X758006D01*
X756073Y590486D01*
D02*
G37*
G36*
X814951Y607187D02*
X809836D01*
X809686Y607203D01*
X809519D01*
X809336Y607220D01*
X808936Y607253D01*
X808520Y607287D01*
X808136Y607353D01*
X807953Y607387D01*
X807786Y607437D01*
X807770D01*
X807737Y607453D01*
X807670Y607470D01*
X807603Y607503D01*
X807503Y607537D01*
X807387Y607587D01*
X807120Y607703D01*
X806820Y607870D01*
X806487Y608070D01*
X806170Y608320D01*
X805854Y608620D01*
X805837Y608636D01*
X805820Y608653D01*
X805770Y608703D01*
X805720Y608769D01*
X805654Y608853D01*
X805570Y608953D01*
X805404Y609203D01*
X805204Y609503D01*
X805004Y609853D01*
X804804Y610252D01*
X804637Y610702D01*
Y610719D01*
X804621Y610752D01*
X804604Y610819D01*
X804571Y610919D01*
X804537Y611036D01*
X804504Y611186D01*
X804454Y611352D01*
X804421Y611535D01*
X804387Y611735D01*
X804337Y611969D01*
X804304Y612219D01*
X804271Y612485D01*
X804237Y612769D01*
X804221Y613068D01*
X804204Y613718D01*
Y613735D01*
Y613785D01*
Y613868D01*
Y613985D01*
X804221Y614118D01*
Y614285D01*
X804237Y614451D01*
X804254Y614651D01*
X804304Y615085D01*
X804371Y615535D01*
X804471Y616001D01*
X804604Y616451D01*
Y616468D01*
X804621Y616518D01*
X804654Y616584D01*
X804687Y616684D01*
X804737Y616801D01*
X804804Y616934D01*
X804954Y617251D01*
X805154Y617617D01*
X805387Y618000D01*
X805670Y618367D01*
X805987Y618717D01*
X806020Y618750D01*
X806104Y618817D01*
X806254Y618934D01*
X806470Y619084D01*
X806720Y619250D01*
X807037Y619417D01*
X807387Y619583D01*
X807803Y619733D01*
X807820D01*
X807837Y619750D01*
X807886D01*
X807953Y619767D01*
X808036Y619800D01*
X808153Y619817D01*
X808270Y619833D01*
X808403Y619867D01*
X808570Y619883D01*
X808736Y619917D01*
X809119Y619950D01*
X809569Y619983D01*
X810086Y620000D01*
X814951D01*
Y607187D01*
D02*
G37*
G36*
X820000D02*
X817417D01*
Y620000D01*
X820000D01*
Y607187D01*
D02*
G37*
G36*
X784959Y620200D02*
X785126Y620183D01*
X785342Y620167D01*
X785609Y620117D01*
X785875Y620067D01*
X786192Y620000D01*
X786509Y619900D01*
X786859Y619800D01*
X787208Y619650D01*
X787558Y619483D01*
X787908Y619283D01*
X788258Y619050D01*
X788591Y618784D01*
X788908Y618484D01*
X788925Y618467D01*
X788975Y618400D01*
X789058Y618300D01*
X789158Y618167D01*
X789291Y617984D01*
X789425Y617767D01*
X789575Y617517D01*
X789724Y617234D01*
X789874Y616901D01*
X790024Y616551D01*
X790158Y616151D01*
X790291Y615734D01*
X790391Y615268D01*
X790474Y614785D01*
X790524Y614252D01*
X790541Y613702D01*
Y613685D01*
Y613668D01*
Y613618D01*
Y613568D01*
X790524Y613402D01*
X790508Y613168D01*
X790491Y612902D01*
X790458Y612602D01*
X790408Y612252D01*
X790341Y611885D01*
X790241Y611485D01*
X790141Y611086D01*
X790008Y610669D01*
X789841Y610252D01*
X789658Y609853D01*
X789441Y609453D01*
X789175Y609086D01*
X788891Y608736D01*
X788875Y608720D01*
X788808Y608653D01*
X788725Y608570D01*
X788591Y608453D01*
X788425Y608320D01*
X788225Y608170D01*
X787991Y608003D01*
X787725Y607836D01*
X787442Y607670D01*
X787108Y607520D01*
X786758Y607370D01*
X786375Y607237D01*
X785959Y607120D01*
X785509Y607037D01*
X785042Y606970D01*
X784559Y606953D01*
X784459D01*
X784326Y606970D01*
X784159D01*
X783959Y607003D01*
X783726Y607020D01*
X783476Y607070D01*
X783193Y607120D01*
X782893Y607203D01*
X782576Y607287D01*
X782260Y607403D01*
X781943Y607537D01*
X781627Y607703D01*
X781310Y607886D01*
X781010Y608103D01*
X780727Y608353D01*
X780710Y608370D01*
X780693Y608386D01*
X780643Y608436D01*
X780577Y608503D01*
X780510Y608586D01*
X780427Y608686D01*
X780343Y608820D01*
X780244Y608953D01*
X780127Y609103D01*
X780027Y609286D01*
X779910Y609469D01*
X779810Y609686D01*
X779694Y609919D01*
X779594Y610153D01*
X779494Y610419D01*
X779410Y610702D01*
X781976Y611319D01*
Y611302D01*
X781993Y611269D01*
X782010Y611219D01*
X782026Y611152D01*
X782093Y610969D01*
X782176Y610752D01*
X782310Y610502D01*
X782476Y610236D01*
X782693Y609986D01*
X782943Y609753D01*
X782976Y609719D01*
X783076Y609653D01*
X783226Y609569D01*
X783426Y609453D01*
X783676Y609353D01*
X783976Y609253D01*
X784326Y609186D01*
X784692Y609169D01*
X784826D01*
X784926Y609186D01*
X785042Y609203D01*
X785192Y609219D01*
X785509Y609303D01*
X785875Y609419D01*
X786059Y609503D01*
X786259Y609603D01*
X786459Y609719D01*
X786642Y609869D01*
X786825Y610019D01*
X786992Y610202D01*
X787009Y610219D01*
X787025Y610252D01*
X787075Y610319D01*
X787125Y610402D01*
X787192Y610502D01*
X787275Y610652D01*
X787358Y610802D01*
X787425Y611002D01*
X787508Y611219D01*
X787592Y611452D01*
X787675Y611735D01*
X787742Y612035D01*
X787792Y612352D01*
X787842Y612719D01*
X787858Y613102D01*
X787875Y613518D01*
Y613552D01*
Y613618D01*
Y613752D01*
X787858Y613918D01*
X787842Y614118D01*
X787825Y614335D01*
X787808Y614601D01*
X787758Y614868D01*
X787658Y615434D01*
X787508Y616001D01*
X787408Y616284D01*
X787292Y616534D01*
X787158Y616768D01*
X787009Y616984D01*
X786992Y617001D01*
X786975Y617034D01*
X786925Y617084D01*
X786859Y617134D01*
X786758Y617217D01*
X786658Y617301D01*
X786542Y617401D01*
X786392Y617484D01*
X786075Y617684D01*
X785692Y617834D01*
X785475Y617901D01*
X785242Y617951D01*
X784992Y617984D01*
X784742Y618000D01*
X784642D01*
X784576Y617984D01*
X784376Y617967D01*
X784126Y617917D01*
X783859Y617834D01*
X783559Y617734D01*
X783259Y617567D01*
X782976Y617351D01*
X782960Y617334D01*
X782943Y617317D01*
X782859Y617217D01*
X782726Y617067D01*
X782560Y616834D01*
X782476Y616701D01*
X782376Y616551D01*
X782293Y616384D01*
X782210Y616184D01*
X782110Y615984D01*
X782043Y615768D01*
X781960Y615518D01*
X781893Y615268D01*
X779377Y616051D01*
Y616068D01*
X779410Y616151D01*
X779444Y616251D01*
X779494Y616401D01*
X779560Y616568D01*
X779627Y616768D01*
X779727Y617001D01*
X779844Y617234D01*
X780110Y617751D01*
X780260Y618017D01*
X780443Y618267D01*
X780627Y618534D01*
X780843Y618767D01*
X781060Y619000D01*
X781310Y619200D01*
X781327Y619217D01*
X781377Y619250D01*
X781443Y619300D01*
X781543Y619350D01*
X781676Y619434D01*
X781843Y619517D01*
X782026Y619617D01*
X782226Y619700D01*
X782460Y619800D01*
X782726Y619900D01*
X783009Y619983D01*
X783309Y620050D01*
X783626Y620117D01*
X783976Y620167D01*
X784326Y620200D01*
X784709Y620217D01*
X784826D01*
X784959Y620200D01*
D02*
G37*
G36*
X748975Y590486D02*
X746475D01*
X748408Y599767D01*
X750907D01*
X748975Y590486D01*
D02*
G37*
G36*
X748242Y586953D02*
X745725D01*
X746209Y589219D01*
X748708D01*
X748242Y586953D01*
D02*
G37*
G36*
X779583Y597751D02*
X772202Y589086D01*
X778167D01*
X777717Y586953D01*
X768503D01*
X768886Y588969D01*
X776334Y597684D01*
X775951D01*
X775718Y597667D01*
X774218D01*
X774035Y597651D01*
X773185D01*
X772669Y597634D01*
X769636D01*
X770086Y599767D01*
X780000D01*
X779583Y597751D01*
D02*
G37*
G36*
X742026Y599983D02*
X742176Y599967D01*
X742343Y599950D01*
X742543Y599917D01*
X742743Y599867D01*
X743193Y599750D01*
X743426Y599650D01*
X743659Y599550D01*
X743893Y599434D01*
X744126Y599300D01*
X744342Y599133D01*
X744542Y598950D01*
X744559Y598934D01*
X744592Y598900D01*
X744642Y598834D01*
X744709Y598750D01*
X744776Y598650D01*
X744876Y598517D01*
X744959Y598367D01*
X745059Y598184D01*
X745159Y597984D01*
X745242Y597767D01*
X745342Y597534D01*
X745409Y597267D01*
X745475Y596984D01*
X745526Y596684D01*
X745559Y596368D01*
X745575Y596034D01*
Y596018D01*
Y595968D01*
Y595884D01*
X745559Y595768D01*
Y595634D01*
X745542Y595485D01*
X745526Y595301D01*
X745492Y595101D01*
X745425Y594668D01*
X745309Y594185D01*
X745159Y593685D01*
X744959Y593168D01*
Y593152D01*
X744926Y593102D01*
X744892Y593035D01*
X744842Y592952D01*
X744776Y592835D01*
X744692Y592702D01*
X744476Y592402D01*
X744209Y592052D01*
X743893Y591702D01*
X743509Y591352D01*
X743059Y591036D01*
X743043Y591019D01*
X743009Y591002D01*
X742926Y590969D01*
X742843Y590919D01*
X742726Y590852D01*
X742576Y590786D01*
X742426Y590719D01*
X742243Y590636D01*
X742043Y590569D01*
X741826Y590502D01*
X741360Y590369D01*
X740843Y590286D01*
X740577Y590252D01*
X740127D01*
X740027Y590269D01*
X739877Y590286D01*
X739727Y590303D01*
X739544Y590319D01*
X739344Y590353D01*
X738927Y590469D01*
X738494Y590619D01*
X738277Y590719D01*
X738061Y590836D01*
X737861Y590969D01*
X737678Y591119D01*
X737661Y591136D01*
X737627Y591152D01*
X737578Y591202D01*
X737527Y591269D01*
X737444Y591369D01*
X737361Y591469D01*
X737261Y591586D01*
X737161Y591719D01*
X736978Y592052D01*
X736794Y592435D01*
X736644Y592885D01*
X736594Y593135D01*
X736561Y593385D01*
X738944Y593635D01*
Y593618D01*
Y593602D01*
X738960Y593502D01*
X738994Y593368D01*
X739044Y593202D01*
X739110Y593002D01*
X739194Y592818D01*
X739294Y592635D01*
X739427Y592485D01*
X739444Y592469D01*
X739494Y592419D01*
X739577Y592369D01*
X739694Y592285D01*
X739844Y592219D01*
X740010Y592169D01*
X740210Y592119D01*
X740443Y592102D01*
X740560D01*
X740710Y592135D01*
X740893Y592169D01*
X741093Y592235D01*
X741327Y592335D01*
X741577Y592469D01*
X741810Y592652D01*
X741843Y592685D01*
X741910Y592752D01*
X742026Y592885D01*
X742160Y593068D01*
X742310Y593285D01*
X742476Y593568D01*
X742626Y593902D01*
X742759Y594285D01*
Y594301D01*
X742776Y594335D01*
X742793Y594385D01*
X742810Y594468D01*
X742843Y594568D01*
X742859Y594685D01*
X742926Y594951D01*
X742993Y595251D01*
X743043Y595601D01*
X743076Y595951D01*
X743093Y596318D01*
Y596334D01*
Y596351D01*
Y596451D01*
X743076Y596601D01*
X743043Y596784D01*
X742993Y597001D01*
X742926Y597217D01*
X742826Y597417D01*
X742693Y597601D01*
X742676Y597617D01*
X742626Y597667D01*
X742526Y597734D01*
X742410Y597817D01*
X742276Y597901D01*
X742110Y597967D01*
X741910Y598017D01*
X741693Y598034D01*
X741593D01*
X741477Y598017D01*
X741327Y597984D01*
X741143Y597934D01*
X740943Y597850D01*
X740743Y597751D01*
X740527Y597601D01*
X740493Y597584D01*
X740427Y597517D01*
X740327Y597417D01*
X740210Y597267D01*
X740060Y597084D01*
X739910Y596867D01*
X739777Y596601D01*
X739644Y596284D01*
X737211Y596684D01*
Y596701D01*
X737244Y596751D01*
X737278Y596834D01*
X737328Y596951D01*
X737394Y597084D01*
X737461Y597251D01*
X737561Y597417D01*
X737661Y597601D01*
X737927Y598000D01*
X738227Y598417D01*
X738594Y598817D01*
X738794Y599000D01*
X739010Y599167D01*
X739027Y599184D01*
X739061Y599200D01*
X739127Y599250D01*
X739210Y599300D01*
X739327Y599367D01*
X739460Y599434D01*
X739610Y599500D01*
X739794Y599583D01*
X739977Y599667D01*
X740193Y599733D01*
X740643Y599867D01*
X741160Y599967D01*
X741443Y599983D01*
X741727Y600000D01*
X741893D01*
X742026Y599983D01*
D02*
G37*
G36*
X733295Y586953D02*
X730779D01*
X731746Y591519D01*
X731729D01*
X731712Y591485D01*
X731662Y591452D01*
X731596Y591402D01*
X731429Y591286D01*
X731212Y591152D01*
X730979Y590986D01*
X730713Y590836D01*
X730429Y590686D01*
X730146Y590552D01*
X730129D01*
X730113Y590536D01*
X730013Y590502D01*
X729863Y590452D01*
X729663Y590402D01*
X729430Y590353D01*
X729146Y590303D01*
X728863Y590269D01*
X728547Y590252D01*
X728430D01*
X728363Y590269D01*
X728263D01*
X728147Y590286D01*
X727897Y590336D01*
X727613Y590419D01*
X727314Y590536D01*
X727030Y590702D01*
X726764Y590919D01*
X726730Y590952D01*
X726664Y591036D01*
X726547Y591186D01*
X726430Y591369D01*
X726314Y591619D01*
X726197Y591919D01*
X726131Y592252D01*
X726097Y592635D01*
Y592668D01*
Y592735D01*
X726114Y592868D01*
X726131Y593052D01*
X726164Y593302D01*
X726214Y593585D01*
X726280Y593935D01*
X726364Y594351D01*
X727530Y599767D01*
X730030D01*
X728846Y594252D01*
Y594235D01*
X728830Y594218D01*
X728813Y594101D01*
X728780Y593951D01*
X728746Y593768D01*
X728713Y593568D01*
X728680Y593385D01*
X728646Y593218D01*
Y593102D01*
Y593085D01*
Y593018D01*
X728663Y592935D01*
X728680Y592835D01*
X728713Y592719D01*
X728780Y592585D01*
X728846Y592469D01*
X728946Y592352D01*
X728963Y592335D01*
X728996Y592302D01*
X729063Y592252D01*
X729146Y592202D01*
X729263Y592152D01*
X729396Y592102D01*
X729546Y592069D01*
X729730Y592052D01*
X729846D01*
X729963Y592069D01*
X730129Y592102D01*
X730313Y592169D01*
X730529Y592235D01*
X730746Y592352D01*
X730963Y592502D01*
X730996Y592535D01*
X731096Y592602D01*
X731229Y592719D01*
X731396Y592885D01*
X731579Y593102D01*
X731779Y593335D01*
X731962Y593618D01*
X732129Y593918D01*
X732146Y593935D01*
X732162Y594018D01*
X732196Y594085D01*
X732212Y594151D01*
X732246Y594252D01*
X732279Y594368D01*
X732312Y594501D01*
X732362Y594651D01*
X732412Y594835D01*
X732462Y595035D01*
X732512Y595268D01*
X732562Y595518D01*
X732629Y595801D01*
X732695Y596101D01*
X733462Y599767D01*
X735961D01*
X733295Y586953D01*
D02*
G37*
%LPC*%
G36*
X700363Y708201D02*
X700279D01*
X700196Y708184D01*
X700096Y708167D01*
X699963Y708134D01*
X699829Y708084D01*
X699696Y708017D01*
X699563Y707917D01*
X699546Y707900D01*
X699513Y707867D01*
X699446Y707784D01*
X699363Y707684D01*
X699280Y707551D01*
X699196Y707367D01*
X699113Y707151D01*
X699030Y706901D01*
Y706884D01*
X699013Y706851D01*
X698996Y706801D01*
X698980Y706718D01*
X698963Y706618D01*
X698946Y706484D01*
X698913Y706318D01*
X698896Y706134D01*
X698863Y705934D01*
X698847Y705701D01*
X698830Y705434D01*
X698796Y705135D01*
X698780Y704818D01*
Y704468D01*
X698763Y704101D01*
Y703685D01*
Y703652D01*
Y703585D01*
Y703468D01*
Y703318D01*
Y703135D01*
X698780Y702918D01*
Y702685D01*
X698796Y702452D01*
X698813Y701935D01*
X698863Y701419D01*
X698880Y701186D01*
X698913Y700952D01*
X698963Y700752D01*
X698996Y700586D01*
Y700569D01*
X699013Y700552D01*
X699030Y700452D01*
X699096Y700303D01*
X699163Y700119D01*
X699246Y699936D01*
X699346Y699753D01*
X699446Y699586D01*
X699580Y699453D01*
X699596Y699436D01*
X699646Y699403D01*
X699713Y699353D01*
X699796Y699303D01*
X699913Y699253D01*
X700046Y699203D01*
X700196Y699169D01*
X700363Y699153D01*
X700446D01*
X700529Y699169D01*
X700629Y699186D01*
X700763Y699219D01*
X700896Y699286D01*
X701029Y699353D01*
X701162Y699453D01*
X701179Y699469D01*
X701212Y699503D01*
X701279Y699586D01*
X701363Y699686D01*
X701446Y699819D01*
X701529Y700003D01*
X701612Y700219D01*
X701696Y700469D01*
Y700486D01*
X701712Y700519D01*
Y700569D01*
X701729Y700652D01*
X701746Y700752D01*
X701779Y700886D01*
X701796Y701052D01*
X701812Y701219D01*
X701846Y701435D01*
X701862Y701669D01*
X701879Y701935D01*
X701912Y702219D01*
X701929Y702552D01*
Y702902D01*
X701946Y703268D01*
Y703685D01*
Y703718D01*
Y703785D01*
Y703902D01*
Y704052D01*
Y704235D01*
X701929Y704451D01*
Y704685D01*
X701912Y704918D01*
X701896Y705434D01*
X701846Y705951D01*
X701829Y706201D01*
X701796Y706418D01*
X701762Y706618D01*
X701729Y706801D01*
Y706817D01*
X701712Y706834D01*
X701679Y706934D01*
X701629Y707084D01*
X701562Y707267D01*
X701496Y707451D01*
X701396Y707634D01*
X701279Y707801D01*
X701162Y707934D01*
X701146Y707951D01*
X701096Y707967D01*
X701029Y708017D01*
X700929Y708067D01*
X700813Y708117D01*
X700679Y708150D01*
X700529Y708184D01*
X700363Y708201D01*
D02*
G37*
G36*
X720924Y708017D02*
X720841D01*
X720774Y708000D01*
X720608Y707984D01*
X720391Y707934D01*
X720158Y707851D01*
X719908Y707717D01*
X719658Y707551D01*
X719408Y707317D01*
X719374Y707284D01*
X719308Y707184D01*
X719208Y707017D01*
X719091Y706801D01*
X718975Y706501D01*
X718875Y706151D01*
X718808Y705718D01*
X718775Y705235D01*
Y705218D01*
Y705168D01*
Y705101D01*
X718791Y705001D01*
Y704885D01*
X718808Y704735D01*
X718841Y704418D01*
X718925Y704068D01*
X719025Y703718D01*
X719175Y703385D01*
X719275Y703218D01*
X719374Y703085D01*
X719408Y703052D01*
X719474Y702969D01*
X719608Y702868D01*
X719791Y702735D01*
X720008Y702602D01*
X720258Y702502D01*
X720558Y702419D01*
X720874Y702385D01*
X720957D01*
X721024Y702402D01*
X721191Y702419D01*
X721391Y702469D01*
X721607Y702552D01*
X721857Y702685D01*
X722091Y702852D01*
X722324Y703085D01*
X722340Y703118D01*
X722407Y703218D01*
X722507Y703368D01*
X722607Y703602D01*
X722707Y703902D01*
X722807Y704251D01*
X722840Y704451D01*
X722874Y704668D01*
X722890Y704918D01*
Y705168D01*
Y705185D01*
Y705235D01*
Y705301D01*
X722874Y705418D01*
Y705535D01*
X722857Y705668D01*
X722824Y706001D01*
X722757Y706351D01*
X722657Y706701D01*
X722507Y707051D01*
X722424Y707201D01*
X722324Y707334D01*
X722290Y707367D01*
X722224Y707434D01*
X722107Y707551D01*
X721941Y707667D01*
X721741Y707801D01*
X721491Y707917D01*
X721224Y707984D01*
X720924Y708017D01*
D02*
G37*
G36*
X769303Y669085D02*
X766853D01*
Y666819D01*
X769303D01*
Y669085D01*
D02*
G37*
G36*
X841568Y679849D02*
X841451D01*
X841068Y679832D01*
X840718Y679799D01*
X840368Y679749D01*
X840051Y679682D01*
X839751Y679615D01*
X839468Y679532D01*
X839202Y679432D01*
X838968Y679332D01*
X838768Y679249D01*
X838585Y679149D01*
X838418Y679066D01*
X838285Y678982D01*
X838185Y678932D01*
X838119Y678882D01*
X838068Y678849D01*
X838052Y678832D01*
X837802Y678632D01*
X837585Y678399D01*
X837369Y678166D01*
X837185Y677899D01*
X837002Y677649D01*
X836852Y677383D01*
X836585Y676866D01*
X836469Y676633D01*
X836369Y676400D01*
X836302Y676200D01*
X836236Y676033D01*
X836186Y675883D01*
X836152Y675783D01*
X836119Y675700D01*
Y675683D01*
X838635Y674900D01*
X838702Y675150D01*
X838785Y675400D01*
X838852Y675617D01*
X838952Y675816D01*
X839035Y676016D01*
X839118Y676183D01*
X839218Y676333D01*
X839302Y676466D01*
X839468Y676700D01*
X839601Y676850D01*
X839685Y676949D01*
X839701Y676966D01*
X839718Y676983D01*
X840001Y677199D01*
X840301Y677366D01*
X840601Y677466D01*
X840868Y677549D01*
X841118Y677599D01*
X841318Y677616D01*
X841384Y677633D01*
X841484D01*
X841734Y677616D01*
X841984Y677583D01*
X842217Y677533D01*
X842434Y677466D01*
X842817Y677316D01*
X843134Y677116D01*
X843284Y677033D01*
X843400Y676933D01*
X843500Y676850D01*
X843600Y676766D01*
X843667Y676716D01*
X843717Y676666D01*
X843734Y676633D01*
X843750Y676616D01*
X843900Y676400D01*
X844034Y676166D01*
X844150Y675917D01*
X844250Y675633D01*
X844400Y675067D01*
X844500Y674500D01*
X844550Y674234D01*
X844567Y673967D01*
X844584Y673750D01*
X844600Y673550D01*
X844617Y673384D01*
Y673251D01*
Y673184D01*
Y673150D01*
X844600Y672734D01*
X844584Y672351D01*
X844533Y671984D01*
X844483Y671667D01*
X844417Y671368D01*
X844333Y671084D01*
X844250Y670851D01*
X844167Y670635D01*
X844100Y670434D01*
X844017Y670285D01*
X843934Y670135D01*
X843867Y670035D01*
X843817Y669951D01*
X843767Y669885D01*
X843750Y669851D01*
X843734Y669835D01*
X843567Y669651D01*
X843384Y669501D01*
X843201Y669352D01*
X843000Y669235D01*
X842801Y669135D01*
X842617Y669052D01*
X842251Y668935D01*
X841934Y668852D01*
X841784Y668835D01*
X841668Y668818D01*
X841568Y668802D01*
X841434D01*
X841068Y668818D01*
X840718Y668885D01*
X840418Y668985D01*
X840168Y669085D01*
X839968Y669202D01*
X839818Y669285D01*
X839718Y669352D01*
X839685Y669385D01*
X839435Y669618D01*
X839218Y669868D01*
X839052Y670135D01*
X838918Y670385D01*
X838835Y670601D01*
X838768Y670784D01*
X838752Y670851D01*
X838735Y670901D01*
X838718Y670934D01*
Y670951D01*
X836152Y670334D01*
X836236Y670051D01*
X836336Y669785D01*
X836436Y669551D01*
X836552Y669318D01*
X836652Y669101D01*
X836769Y668918D01*
X836869Y668735D01*
X836985Y668585D01*
X837085Y668452D01*
X837169Y668318D01*
X837252Y668218D01*
X837319Y668135D01*
X837385Y668068D01*
X837435Y668018D01*
X837452Y668002D01*
X837469Y667985D01*
X837752Y667735D01*
X838052Y667519D01*
X838368Y667335D01*
X838685Y667169D01*
X839002Y667035D01*
X839318Y666919D01*
X839635Y666835D01*
X839935Y666752D01*
X840218Y666702D01*
X840468Y666652D01*
X840701Y666636D01*
X840901Y666602D01*
X841068D01*
X841201Y666585D01*
X841301D01*
X841784Y666602D01*
X842251Y666669D01*
X842701Y666752D01*
X843117Y666869D01*
X843500Y667002D01*
X843850Y667152D01*
X844184Y667302D01*
X844467Y667469D01*
X844733Y667635D01*
X844967Y667802D01*
X845167Y667952D01*
X845333Y668085D01*
X845467Y668202D01*
X845550Y668285D01*
X845617Y668352D01*
X845633Y668368D01*
X845917Y668718D01*
X846183Y669085D01*
X846400Y669485D01*
X846583Y669885D01*
X846750Y670301D01*
X846883Y670718D01*
X846983Y671118D01*
X847083Y671518D01*
X847150Y671884D01*
X847199Y672234D01*
X847233Y672534D01*
X847250Y672801D01*
X847266Y673034D01*
X847283Y673201D01*
Y673251D01*
Y673300D01*
Y673317D01*
Y673334D01*
X847266Y673884D01*
X847216Y674417D01*
X847133Y674900D01*
X847033Y675367D01*
X846900Y675783D01*
X846766Y676183D01*
X846616Y676533D01*
X846466Y676866D01*
X846316Y677150D01*
X846166Y677399D01*
X846033Y677616D01*
X845900Y677799D01*
X845800Y677933D01*
X845716Y678033D01*
X845667Y678099D01*
X845650Y678116D01*
X845333Y678416D01*
X845000Y678682D01*
X844650Y678916D01*
X844300Y679116D01*
X843950Y679282D01*
X843600Y679432D01*
X843251Y679532D01*
X842934Y679632D01*
X842617Y679699D01*
X842351Y679749D01*
X842084Y679799D01*
X841868Y679816D01*
X841701Y679832D01*
X841568Y679849D01*
D02*
G37*
G36*
X772885D02*
X772768D01*
X772369Y679832D01*
X772002Y679799D01*
X771669Y679732D01*
X771386Y679666D01*
X771152Y679615D01*
X770969Y679549D01*
X770902Y679532D01*
X770852Y679516D01*
X770836Y679499D01*
X770819D01*
X771036Y677583D01*
X771269Y677666D01*
X771469Y677716D01*
X771636Y677766D01*
X771769Y677783D01*
X771885Y677799D01*
X771952Y677816D01*
X772019D01*
X772185Y677799D01*
X772335Y677749D01*
X772419Y677716D01*
X772435Y677699D01*
X772452D01*
X772552Y677599D01*
X772619Y677499D01*
X772652Y677433D01*
X772669Y677399D01*
Y677349D01*
X772685Y677283D01*
Y677100D01*
Y676883D01*
X772702Y676650D01*
Y676433D01*
Y676250D01*
Y676166D01*
Y676116D01*
Y676083D01*
Y676066D01*
Y672301D01*
X771019D01*
Y670351D01*
X772702D01*
Y667052D01*
X775151Y668502D01*
Y670351D01*
X776284D01*
Y672301D01*
X775151D01*
Y676366D01*
Y676600D01*
Y676816D01*
Y677016D01*
X775135Y677183D01*
Y677349D01*
Y677483D01*
X775118Y677716D01*
X775101Y677899D01*
Y678016D01*
X775085Y678083D01*
Y678099D01*
X775035Y678316D01*
X774985Y678499D01*
X774935Y678666D01*
X774868Y678799D01*
X774818Y678916D01*
X774768Y678999D01*
X774751Y679049D01*
X774735Y679066D01*
X774635Y679182D01*
X774501Y679299D01*
X774251Y679482D01*
X774135Y679549D01*
X774035Y679599D01*
X773968Y679615D01*
X773952Y679632D01*
X773752Y679699D01*
X773535Y679749D01*
X773335Y679799D01*
X773152Y679816D01*
X773002Y679832D01*
X772885Y679849D01*
D02*
G37*
G36*
X676460D02*
X676343D01*
X675943Y679832D01*
X675577Y679799D01*
X675244Y679732D01*
X674960Y679666D01*
X674727Y679615D01*
X674544Y679549D01*
X674477Y679532D01*
X674427Y679516D01*
X674410Y679499D01*
X674394D01*
X674610Y677583D01*
X674844Y677666D01*
X675044Y677716D01*
X675210Y677766D01*
X675343Y677783D01*
X675460Y677799D01*
X675527Y677816D01*
X675593D01*
X675760Y677799D01*
X675910Y677749D01*
X675993Y677716D01*
X676010Y677699D01*
X676027D01*
X676127Y677599D01*
X676193Y677499D01*
X676227Y677433D01*
X676243Y677399D01*
Y677349D01*
X676260Y677283D01*
Y677100D01*
Y676883D01*
X676277Y676650D01*
Y676433D01*
Y676250D01*
Y676166D01*
Y676116D01*
Y676083D01*
Y676066D01*
Y672301D01*
X674594D01*
Y670351D01*
X676277D01*
Y667052D01*
X678726Y668502D01*
Y670351D01*
X679859D01*
Y672301D01*
X678726D01*
Y676366D01*
Y676600D01*
Y676816D01*
Y677016D01*
X678709Y677183D01*
Y677349D01*
Y677483D01*
X678693Y677716D01*
X678676Y677899D01*
Y678016D01*
X678659Y678083D01*
Y678099D01*
X678609Y678316D01*
X678559Y678499D01*
X678509Y678666D01*
X678443Y678799D01*
X678393Y678916D01*
X678343Y678999D01*
X678326Y679049D01*
X678309Y679066D01*
X678209Y679182D01*
X678076Y679299D01*
X677826Y679482D01*
X677710Y679549D01*
X677610Y679599D01*
X677543Y679615D01*
X677526Y679632D01*
X677326Y679699D01*
X677110Y679749D01*
X676910Y679799D01*
X676727Y679816D01*
X676577Y679832D01*
X676460Y679849D01*
D02*
G37*
G36*
X885606Y679632D02*
X880807D01*
X880408Y679615D01*
X879725D01*
X879441Y679599D01*
X878958D01*
X878775Y679582D01*
X878608D01*
X878475Y679566D01*
X878275D01*
X878208Y679549D01*
X878142D01*
X877775Y679482D01*
X877442Y679399D01*
X877142Y679316D01*
X876892Y679199D01*
X876692Y679116D01*
X876525Y679032D01*
X876442Y678966D01*
X876409Y678949D01*
X876159Y678749D01*
X875926Y678532D01*
X875742Y678316D01*
X875575Y678099D01*
X875459Y677916D01*
X875359Y677766D01*
X875309Y677666D01*
X875292Y677649D01*
Y677633D01*
X875159Y677316D01*
X875059Y677016D01*
X874976Y676733D01*
X874926Y676466D01*
X874892Y676250D01*
X874876Y676083D01*
Y676016D01*
Y675966D01*
Y675950D01*
Y675933D01*
X874909Y675533D01*
X874976Y675167D01*
X875076Y674833D01*
X875192Y674550D01*
X875309Y674317D01*
X875409Y674150D01*
X875442Y674084D01*
X875476Y674034D01*
X875509Y674017D01*
Y674000D01*
X875776Y673717D01*
X876059Y673467D01*
X876359Y673267D01*
X876642Y673117D01*
X876908Y672984D01*
X877025Y672934D01*
X877109Y672901D01*
X877192Y672867D01*
X877258Y672851D01*
X877292Y672834D01*
X877308D01*
X877009Y672667D01*
X876759Y672501D01*
X876525Y672301D01*
X876342Y672117D01*
X876192Y671951D01*
X876075Y671817D01*
X876009Y671734D01*
X875992Y671701D01*
X875826Y671418D01*
X875709Y671134D01*
X875626Y670851D01*
X875575Y670601D01*
X875526Y670368D01*
X875509Y670201D01*
Y670135D01*
Y670085D01*
Y670068D01*
Y670051D01*
X875526Y669751D01*
X875575Y669468D01*
X875642Y669218D01*
X875709Y668985D01*
X875776Y668802D01*
X875842Y668668D01*
X875892Y668585D01*
X875909Y668552D01*
X876059Y668318D01*
X876225Y668102D01*
X876392Y667918D01*
X876542Y667768D01*
X876692Y667652D01*
X876792Y667552D01*
X876859Y667502D01*
X876892Y667485D01*
X877109Y667352D01*
X877342Y667235D01*
X877575Y667135D01*
X877775Y667069D01*
X877958Y667019D01*
X878092Y666985D01*
X878192Y666952D01*
X878225D01*
X878375Y666935D01*
X878541Y666902D01*
X878891Y666869D01*
X879275Y666852D01*
X879641Y666835D01*
X879974Y666819D01*
X885606D01*
Y679632D01*
D02*
G37*
G36*
X683808Y669085D02*
X681359D01*
Y666819D01*
X683808D01*
Y669085D01*
D02*
G37*
G36*
X711751Y679632D02*
X709302D01*
Y676766D01*
Y676333D01*
X709285Y675950D01*
Y675600D01*
X709268Y675283D01*
X709251Y675000D01*
X709235Y674750D01*
X709218Y674517D01*
X709202Y674333D01*
X709185Y674167D01*
X709168Y674017D01*
X709152Y673917D01*
X709135Y673817D01*
X709118Y673750D01*
X709101Y673700D01*
Y673667D01*
X709018Y673400D01*
X708935Y673184D01*
X708835Y673017D01*
X708752Y672867D01*
X708668Y672767D01*
X708602Y672684D01*
X708568Y672651D01*
X708552Y672634D01*
X708402Y672534D01*
X708252Y672467D01*
X708102Y672401D01*
X707969Y672367D01*
X707835Y672351D01*
X707735Y672334D01*
X707652D01*
X707452Y672351D01*
X707252Y672401D01*
X707052Y672467D01*
X706869Y672534D01*
X706719Y672617D01*
X706602Y672684D01*
X706535Y672734D01*
X706502Y672751D01*
X705736Y670601D01*
X706036Y670451D01*
X706319Y670334D01*
X706602Y670251D01*
X706852Y670185D01*
X707052Y670151D01*
X707219Y670135D01*
X707369D01*
X707585Y670151D01*
X707785Y670185D01*
X707952Y670235D01*
X708118Y670285D01*
X708235Y670351D01*
X708335Y670401D01*
X708402Y670434D01*
X708418Y670451D01*
X708602Y670584D01*
X708785Y670768D01*
X708951Y670968D01*
X709118Y671184D01*
X709251Y671368D01*
X709368Y671534D01*
X709418Y671601D01*
X709435Y671651D01*
X709468Y671667D01*
Y670351D01*
X711751D01*
Y679632D01*
D02*
G37*
G36*
X749541Y683415D02*
X749324D01*
X748875Y683398D01*
X748475Y683364D01*
X748125Y683331D01*
X747825Y683281D01*
X747575Y683231D01*
X747492Y683215D01*
X747408Y683181D01*
X747342Y683165D01*
X747292D01*
X747275Y683148D01*
X747258D01*
X746975Y683031D01*
X746709Y682915D01*
X746492Y682798D01*
X746309Y682681D01*
X746159Y682581D01*
X746042Y682498D01*
X745975Y682431D01*
X745959Y682415D01*
X745775Y682232D01*
X745626Y682015D01*
X745492Y681798D01*
X745392Y681598D01*
X745309Y681415D01*
X745242Y681265D01*
X745209Y681165D01*
X745192Y681148D01*
Y681132D01*
X745142Y680965D01*
X745092Y680798D01*
X745026Y680415D01*
X744976Y680015D01*
X744942Y679615D01*
X744926Y679266D01*
X744909Y679099D01*
Y678966D01*
Y678849D01*
Y678766D01*
Y678716D01*
Y678699D01*
Y670351D01*
X747208D01*
Y671651D01*
X747425Y671384D01*
X747658Y671151D01*
X747892Y670951D01*
X748125Y670768D01*
X748375Y670635D01*
X748608Y670501D01*
X748841Y670401D01*
X749058Y670318D01*
X749258Y670268D01*
X749458Y670218D01*
X749624Y670185D01*
X749774Y670151D01*
X749891D01*
X749974Y670135D01*
X750058D01*
X750358Y670151D01*
X750658Y670185D01*
X750941Y670251D01*
X751191Y670334D01*
X751441Y670418D01*
X751674Y670535D01*
X751874Y670635D01*
X752074Y670751D01*
X752241Y670868D01*
X752390Y670984D01*
X752524Y671101D01*
X752640Y671184D01*
X752724Y671268D01*
X752790Y671334D01*
X752824Y671368D01*
X752840Y671384D01*
X753040Y671634D01*
X753207Y671884D01*
X753357Y672167D01*
X753490Y672467D01*
X753590Y672751D01*
X753690Y673051D01*
X753823Y673634D01*
X753857Y673900D01*
X753890Y674150D01*
X753923Y674367D01*
X753940Y674567D01*
X753957Y674733D01*
Y674850D01*
Y674917D01*
Y674950D01*
X753940Y675283D01*
X753923Y675617D01*
X753873Y675917D01*
X753823Y676216D01*
X753757Y676483D01*
X753690Y676750D01*
X753607Y676983D01*
X753523Y677199D01*
X753457Y677383D01*
X753373Y677549D01*
X753307Y677699D01*
X753240Y677833D01*
X753190Y677916D01*
X753140Y677999D01*
X753124Y678033D01*
X753107Y678049D01*
X752890Y678333D01*
X752674Y678566D01*
X752424Y678782D01*
X752190Y678966D01*
X751941Y679116D01*
X751691Y679249D01*
X751457Y679349D01*
X751224Y679432D01*
X751007Y679499D01*
X750807Y679549D01*
X750624Y679582D01*
X750458Y679599D01*
X750341Y679615D01*
X750241Y679632D01*
X750158D01*
X749841Y679615D01*
X749558Y679566D01*
X749275Y679499D01*
X749008Y679399D01*
X748758Y679282D01*
X748525Y679149D01*
X748325Y679016D01*
X748125Y678866D01*
X747958Y678732D01*
X747792Y678599D01*
X747675Y678466D01*
X747558Y678349D01*
X747475Y678249D01*
X747408Y678183D01*
X747375Y678133D01*
X747358Y678116D01*
Y679482D01*
Y679765D01*
X747375Y679999D01*
X747392Y680199D01*
X747408Y680349D01*
X747442Y680465D01*
X747458Y680532D01*
X747475Y680582D01*
Y680599D01*
X747542Y680749D01*
X747625Y680882D01*
X747708Y680982D01*
X747792Y681082D01*
X747858Y681148D01*
X747925Y681198D01*
X747958Y681215D01*
X747975Y681232D01*
X748175Y681332D01*
X748408Y681398D01*
X748641Y681465D01*
X748875Y681498D01*
X749091Y681515D01*
X749258Y681532D01*
X749425D01*
X749691Y681515D01*
X749908Y681482D01*
X750108Y681448D01*
X750258Y681398D01*
X750374Y681348D01*
X750458Y681298D01*
X750508Y681282D01*
X750524Y681265D01*
X750608Y681182D01*
X750674Y681065D01*
X750774Y680848D01*
X750807Y680749D01*
X750824Y680665D01*
X750841Y680599D01*
Y680582D01*
X753640Y680249D01*
X753657Y680365D01*
Y680449D01*
Y680515D01*
Y680532D01*
X753640Y680765D01*
X753607Y680982D01*
X753573Y681182D01*
X753507Y681382D01*
X753340Y681732D01*
X753157Y682032D01*
X752990Y682281D01*
X752907Y682365D01*
X752824Y682448D01*
X752757Y682515D01*
X752724Y682565D01*
X752690Y682581D01*
X752674Y682598D01*
X752474Y682748D01*
X752241Y682865D01*
X751991Y682981D01*
X751724Y683065D01*
X751174Y683215D01*
X750624Y683315D01*
X750358Y683348D01*
X750124Y683364D01*
X749908Y683381D01*
X749708Y683398D01*
X749541Y683415D01*
D02*
G37*
G36*
X743926Y683165D02*
X733728D01*
Y681565D01*
X743926D01*
Y683165D01*
D02*
G37*
G36*
X700854Y679849D02*
X700770D01*
X700437Y679832D01*
X700137Y679816D01*
X699837Y679765D01*
X699571Y679715D01*
X699321Y679649D01*
X699087Y679582D01*
X698871Y679516D01*
X698671Y679432D01*
X698504Y679349D01*
X698354Y679282D01*
X698221Y679216D01*
X698121Y679149D01*
X698038Y679099D01*
X697971Y679049D01*
X697938Y679032D01*
X697921Y679016D01*
X697721Y678849D01*
X697554Y678666D01*
X697238Y678266D01*
X696988Y677849D01*
X696788Y677433D01*
X696721Y677249D01*
X696655Y677066D01*
X696588Y676916D01*
X696555Y676766D01*
X696521Y676666D01*
X696488Y676566D01*
X696471Y676516D01*
Y676500D01*
X698887Y676083D01*
X698971Y676416D01*
X699071Y676716D01*
X699171Y676949D01*
X699271Y677150D01*
X699371Y677283D01*
X699454Y677383D01*
X699504Y677449D01*
X699521Y677466D01*
X699704Y677599D01*
X699887Y677683D01*
X700087Y677749D01*
X700270Y677799D01*
X700420Y677833D01*
X700554Y677849D01*
X700670D01*
X701004Y677816D01*
X701287Y677749D01*
X701553Y677633D01*
X701753Y677499D01*
X701937Y677383D01*
X702053Y677266D01*
X702120Y677199D01*
X702153Y677166D01*
X702253Y677033D01*
X702337Y676866D01*
X702470Y676516D01*
X702570Y676133D01*
X702636Y675750D01*
X702670Y675383D01*
X702686Y675233D01*
Y675100D01*
X702703Y674983D01*
Y674900D01*
Y674850D01*
Y674833D01*
Y674567D01*
X702686Y674317D01*
X702653Y674084D01*
X702620Y673884D01*
X702587Y673684D01*
X702536Y673517D01*
X702486Y673350D01*
X702437Y673217D01*
X702387Y673101D01*
X702337Y673000D01*
X702287Y672901D01*
X702253Y672834D01*
X702187Y672751D01*
X702170Y672717D01*
X701953Y672501D01*
X701703Y672334D01*
X701453Y672217D01*
X701220Y672151D01*
X701004Y672101D01*
X700837Y672084D01*
X700770Y672067D01*
X700687D01*
X700437Y672084D01*
X700220Y672117D01*
X700037Y672184D01*
X699871Y672251D01*
X699737Y672317D01*
X699654Y672384D01*
X699587Y672417D01*
X699571Y672434D01*
X699421Y672584D01*
X699304Y672751D01*
X699204Y672934D01*
X699121Y673117D01*
X699071Y673267D01*
X699037Y673400D01*
X699004Y673484D01*
Y673500D01*
Y673517D01*
X696588Y673084D01*
X696671Y672817D01*
X696771Y672567D01*
X696888Y672334D01*
X697005Y672117D01*
X697121Y671917D01*
X697238Y671734D01*
X697371Y671568D01*
X697488Y671418D01*
X697588Y671284D01*
X697704Y671184D01*
X697788Y671084D01*
X697871Y671001D01*
X697938Y670951D01*
X697988Y670901D01*
X698021Y670868D01*
X698038D01*
X698238Y670734D01*
X698438Y670618D01*
X698871Y670451D01*
X699321Y670318D01*
X699754Y670218D01*
X699954Y670201D01*
X700137Y670168D01*
X700304Y670151D01*
X700437D01*
X700554Y670135D01*
X700720D01*
X701104Y670151D01*
X701453Y670185D01*
X701803Y670251D01*
X702120Y670334D01*
X702403Y670434D01*
X702686Y670535D01*
X702920Y670651D01*
X703153Y670768D01*
X703353Y670901D01*
X703520Y671018D01*
X703670Y671118D01*
X703803Y671218D01*
X703886Y671301D01*
X703969Y671368D01*
X704003Y671401D01*
X704019Y671418D01*
X704236Y671667D01*
X704419Y671934D01*
X704569Y672217D01*
X704719Y672517D01*
X704836Y672817D01*
X704919Y673117D01*
X705003Y673417D01*
X705069Y673700D01*
X705119Y673967D01*
X705153Y674217D01*
X705186Y674434D01*
X705202Y674633D01*
Y674800D01*
X705219Y674917D01*
Y674983D01*
Y675017D01*
X705202Y675433D01*
X705169Y675816D01*
X705102Y676183D01*
X705036Y676533D01*
X704936Y676850D01*
X704836Y677133D01*
X704736Y677399D01*
X704619Y677633D01*
X704503Y677849D01*
X704403Y678033D01*
X704303Y678199D01*
X704203Y678333D01*
X704136Y678432D01*
X704070Y678499D01*
X704036Y678549D01*
X704019Y678566D01*
X703786Y678799D01*
X703536Y678982D01*
X703270Y679166D01*
X703003Y679299D01*
X702720Y679432D01*
X702453Y679532D01*
X702187Y679615D01*
X701937Y679682D01*
X701703Y679749D01*
X701470Y679782D01*
X701270Y679816D01*
X701104Y679832D01*
X700970D01*
X700854Y679849D01*
D02*
G37*
G36*
X728697D02*
X728613D01*
X728280Y679832D01*
X727980Y679816D01*
X727680Y679765D01*
X727413Y679715D01*
X727163Y679649D01*
X726930Y679582D01*
X726714Y679516D01*
X726514Y679432D01*
X726347Y679349D01*
X726197Y679282D01*
X726064Y679216D01*
X725964Y679149D01*
X725881Y679099D01*
X725814Y679049D01*
X725781Y679032D01*
X725764Y679016D01*
X725564Y678849D01*
X725397Y678666D01*
X725081Y678266D01*
X724831Y677849D01*
X724631Y677433D01*
X724564Y677249D01*
X724498Y677066D01*
X724431Y676916D01*
X724398Y676766D01*
X724364Y676666D01*
X724331Y676566D01*
X724314Y676516D01*
Y676500D01*
X726730Y676083D01*
X726814Y676416D01*
X726914Y676716D01*
X727014Y676949D01*
X727114Y677150D01*
X727214Y677283D01*
X727297Y677383D01*
X727347Y677449D01*
X727364Y677466D01*
X727547Y677599D01*
X727730Y677683D01*
X727930Y677749D01*
X728113Y677799D01*
X728263Y677833D01*
X728397Y677849D01*
X728513D01*
X728846Y677816D01*
X729130Y677749D01*
X729396Y677633D01*
X729596Y677499D01*
X729780Y677383D01*
X729896Y677266D01*
X729963Y677199D01*
X729996Y677166D01*
X730096Y677033D01*
X730179Y676866D01*
X730313Y676516D01*
X730413Y676133D01*
X730479Y675750D01*
X730513Y675383D01*
X730529Y675233D01*
Y675100D01*
X730546Y674983D01*
Y674900D01*
Y674850D01*
Y674833D01*
Y674567D01*
X730529Y674317D01*
X730496Y674084D01*
X730463Y673884D01*
X730429Y673684D01*
X730379Y673517D01*
X730329Y673350D01*
X730279Y673217D01*
X730229Y673101D01*
X730179Y673000D01*
X730129Y672901D01*
X730096Y672834D01*
X730030Y672751D01*
X730013Y672717D01*
X729796Y672501D01*
X729546Y672334D01*
X729296Y672217D01*
X729063Y672151D01*
X728846Y672101D01*
X728680Y672084D01*
X728613Y672067D01*
X728530D01*
X728280Y672084D01*
X728063Y672117D01*
X727880Y672184D01*
X727713Y672251D01*
X727580Y672317D01*
X727497Y672384D01*
X727430Y672417D01*
X727413Y672434D01*
X727263Y672584D01*
X727147Y672751D01*
X727047Y672934D01*
X726964Y673117D01*
X726914Y673267D01*
X726880Y673400D01*
X726847Y673484D01*
Y673500D01*
Y673517D01*
X724431Y673084D01*
X724514Y672817D01*
X724614Y672567D01*
X724731Y672334D01*
X724847Y672117D01*
X724964Y671917D01*
X725081Y671734D01*
X725214Y671568D01*
X725331Y671418D01*
X725431Y671284D01*
X725547Y671184D01*
X725631Y671084D01*
X725714Y671001D01*
X725781Y670951D01*
X725831Y670901D01*
X725864Y670868D01*
X725881D01*
X726080Y670734D01*
X726280Y670618D01*
X726714Y670451D01*
X727163Y670318D01*
X727597Y670218D01*
X727797Y670201D01*
X727980Y670168D01*
X728147Y670151D01*
X728280D01*
X728397Y670135D01*
X728563D01*
X728946Y670151D01*
X729296Y670185D01*
X729646Y670251D01*
X729963Y670334D01*
X730246Y670434D01*
X730529Y670535D01*
X730763Y670651D01*
X730996Y670768D01*
X731196Y670901D01*
X731363Y671018D01*
X731512Y671118D01*
X731646Y671218D01*
X731729Y671301D01*
X731812Y671368D01*
X731846Y671401D01*
X731862Y671418D01*
X732079Y671667D01*
X732262Y671934D01*
X732412Y672217D01*
X732562Y672517D01*
X732679Y672817D01*
X732762Y673117D01*
X732845Y673417D01*
X732912Y673700D01*
X732962Y673967D01*
X732995Y674217D01*
X733029Y674434D01*
X733045Y674633D01*
Y674800D01*
X733062Y674917D01*
Y674983D01*
Y675017D01*
X733045Y675433D01*
X733012Y675816D01*
X732945Y676183D01*
X732879Y676533D01*
X732779Y676850D01*
X732679Y677133D01*
X732579Y677399D01*
X732462Y677633D01*
X732346Y677849D01*
X732246Y678033D01*
X732146Y678199D01*
X732046Y678333D01*
X731979Y678432D01*
X731912Y678499D01*
X731879Y678549D01*
X731862Y678566D01*
X731629Y678799D01*
X731379Y678982D01*
X731113Y679166D01*
X730846Y679299D01*
X730563Y679432D01*
X730296Y679532D01*
X730030Y679615D01*
X729780Y679682D01*
X729546Y679749D01*
X729313Y679782D01*
X729113Y679816D01*
X728946Y679832D01*
X728813D01*
X728697Y679849D01*
D02*
G37*
G36*
X719699D02*
X719549D01*
X719216Y679832D01*
X718899Y679782D01*
X718599Y679715D01*
X718333Y679632D01*
X718116Y679566D01*
X717949Y679499D01*
X717899Y679465D01*
X717849Y679449D01*
X717833Y679432D01*
X717816D01*
X717516Y679249D01*
X717266Y679066D01*
X717033Y678866D01*
X716850Y678682D01*
X716683Y678516D01*
X716583Y678366D01*
X716500Y678282D01*
X716483Y678249D01*
Y679632D01*
X714200D01*
Y670351D01*
X716650D01*
Y674267D01*
Y674617D01*
Y674950D01*
X716666Y675233D01*
X716683Y675500D01*
X716700Y675733D01*
Y675933D01*
X716716Y676116D01*
X716733Y676266D01*
X716749Y676400D01*
X716766Y676516D01*
X716783Y676600D01*
X716799Y676666D01*
X716816Y676716D01*
Y676750D01*
X716833Y676783D01*
X716916Y676966D01*
X717016Y677133D01*
X717133Y677266D01*
X717249Y677399D01*
X717349Y677499D01*
X717433Y677566D01*
X717499Y677616D01*
X717516Y677633D01*
X717716Y677749D01*
X717899Y677833D01*
X718099Y677883D01*
X718266Y677916D01*
X718416Y677949D01*
X718549Y677966D01*
X718649D01*
X718832Y677949D01*
X719016Y677933D01*
X719166Y677883D01*
X719299Y677833D01*
X719399Y677799D01*
X719482Y677749D01*
X719532Y677733D01*
X719549Y677716D01*
X719666Y677616D01*
X719765Y677499D01*
X719849Y677383D01*
X719915Y677283D01*
X719965Y677183D01*
X719999Y677100D01*
X720032Y677049D01*
Y677033D01*
X720049Y676933D01*
X720082Y676800D01*
X720099Y676650D01*
X720115Y676466D01*
X720132Y676066D01*
X720149Y675650D01*
X720165Y675267D01*
Y675083D01*
Y674933D01*
Y674800D01*
Y674700D01*
Y674633D01*
Y674617D01*
Y670351D01*
X722615D01*
Y676233D01*
X722598Y676700D01*
X722565Y677116D01*
X722515Y677466D01*
X722448Y677766D01*
X722398Y677999D01*
X722348Y678166D01*
X722331Y678216D01*
X722315Y678266D01*
X722298Y678282D01*
Y678299D01*
X722148Y678566D01*
X721998Y678782D01*
X721815Y678982D01*
X721632Y679149D01*
X721482Y679282D01*
X721348Y679366D01*
X721265Y679432D01*
X721232Y679449D01*
X720948Y679582D01*
X720648Y679682D01*
X720365Y679749D01*
X720115Y679799D01*
X719882Y679832D01*
X719699Y679849D01*
D02*
G37*
G36*
X794246D02*
X794096D01*
X793763Y679832D01*
X793447Y679782D01*
X793147Y679715D01*
X792880Y679632D01*
X792663Y679566D01*
X792497Y679499D01*
X792447Y679465D01*
X792397Y679449D01*
X792380Y679432D01*
X792364D01*
X792064Y679249D01*
X791814Y679066D01*
X791580Y678866D01*
X791397Y678682D01*
X791230Y678516D01*
X791131Y678366D01*
X791047Y678282D01*
X791031Y678249D01*
Y679632D01*
X788748D01*
Y670351D01*
X791197D01*
Y674267D01*
Y674617D01*
Y674950D01*
X791214Y675233D01*
X791230Y675500D01*
X791247Y675733D01*
Y675933D01*
X791264Y676116D01*
X791281Y676266D01*
X791297Y676400D01*
X791314Y676516D01*
X791330Y676600D01*
X791347Y676666D01*
X791364Y676716D01*
Y676750D01*
X791380Y676783D01*
X791464Y676966D01*
X791564Y677133D01*
X791680Y677266D01*
X791797Y677399D01*
X791897Y677499D01*
X791980Y677566D01*
X792047Y677616D01*
X792064Y677633D01*
X792263Y677749D01*
X792447Y677833D01*
X792647Y677883D01*
X792813Y677916D01*
X792963Y677949D01*
X793097Y677966D01*
X793197D01*
X793380Y677949D01*
X793563Y677933D01*
X793713Y677883D01*
X793847Y677833D01*
X793946Y677799D01*
X794030Y677749D01*
X794080Y677733D01*
X794096Y677716D01*
X794213Y677616D01*
X794313Y677499D01*
X794396Y677383D01*
X794463Y677283D01*
X794513Y677183D01*
X794546Y677100D01*
X794580Y677049D01*
Y677033D01*
X794596Y676933D01*
X794630Y676800D01*
X794646Y676650D01*
X794663Y676466D01*
X794680Y676066D01*
X794696Y675650D01*
X794713Y675267D01*
Y675083D01*
Y674933D01*
Y674800D01*
Y674700D01*
Y674633D01*
Y674617D01*
Y670351D01*
X797162D01*
Y676233D01*
X797146Y676700D01*
X797112Y677116D01*
X797062Y677466D01*
X796996Y677766D01*
X796946Y677999D01*
X796896Y678166D01*
X796879Y678216D01*
X796862Y678266D01*
X796846Y678282D01*
Y678299D01*
X796696Y678566D01*
X796546Y678782D01*
X796363Y678982D01*
X796179Y679149D01*
X796029Y679282D01*
X795896Y679366D01*
X795813Y679432D01*
X795779Y679449D01*
X795496Y679582D01*
X795196Y679682D01*
X794913Y679749D01*
X794663Y679799D01*
X794430Y679832D01*
X794246Y679849D01*
D02*
G37*
G36*
X691856D02*
X691706D01*
X691373Y679832D01*
X691056Y679782D01*
X690756Y679715D01*
X690490Y679632D01*
X690273Y679566D01*
X690106Y679499D01*
X690056Y679465D01*
X690006Y679449D01*
X689990Y679432D01*
X689973D01*
X689673Y679249D01*
X689423Y679066D01*
X689190Y678866D01*
X689007Y678682D01*
X688840Y678516D01*
X688740Y678366D01*
X688657Y678282D01*
X688640Y678249D01*
Y679632D01*
X686357D01*
Y670351D01*
X688807D01*
Y674267D01*
Y674617D01*
Y674950D01*
X688823Y675233D01*
X688840Y675500D01*
X688857Y675733D01*
Y675933D01*
X688873Y676116D01*
X688890Y676266D01*
X688907Y676400D01*
X688923Y676516D01*
X688940Y676600D01*
X688957Y676666D01*
X688973Y676716D01*
Y676750D01*
X688990Y676783D01*
X689073Y676966D01*
X689173Y677133D01*
X689290Y677266D01*
X689407Y677399D01*
X689507Y677499D01*
X689590Y677566D01*
X689657Y677616D01*
X689673Y677633D01*
X689873Y677749D01*
X690056Y677833D01*
X690256Y677883D01*
X690423Y677916D01*
X690573Y677949D01*
X690706Y677966D01*
X690806D01*
X690990Y677949D01*
X691173Y677933D01*
X691323Y677883D01*
X691456Y677833D01*
X691556Y677799D01*
X691639Y677749D01*
X691689Y677733D01*
X691706Y677716D01*
X691823Y677616D01*
X691923Y677499D01*
X692006Y677383D01*
X692073Y677283D01*
X692122Y677183D01*
X692156Y677100D01*
X692189Y677049D01*
Y677033D01*
X692206Y676933D01*
X692239Y676800D01*
X692256Y676650D01*
X692272Y676466D01*
X692289Y676066D01*
X692306Y675650D01*
X692322Y675267D01*
Y675083D01*
Y674933D01*
Y674800D01*
Y674700D01*
Y674633D01*
Y674617D01*
Y670351D01*
X694772D01*
Y676233D01*
X694755Y676700D01*
X694722Y677116D01*
X694672Y677466D01*
X694605Y677766D01*
X694555Y677999D01*
X694505Y678166D01*
X694489Y678216D01*
X694472Y678266D01*
X694455Y678282D01*
Y678299D01*
X694305Y678566D01*
X694155Y678782D01*
X693972Y678982D01*
X693789Y679149D01*
X693639Y679282D01*
X693505Y679366D01*
X693422Y679432D01*
X693389Y679449D01*
X693106Y679582D01*
X692806Y679682D01*
X692522Y679749D01*
X692272Y679799D01*
X692039Y679832D01*
X691856Y679849D01*
D02*
G37*
G36*
X859746Y679632D02*
X857164D01*
Y674284D01*
X856330D01*
X856064Y674300D01*
X855847Y674333D01*
X855664Y674350D01*
X855514Y674383D01*
X855431Y674417D01*
X855364Y674434D01*
X855347D01*
X855197Y674500D01*
X855048Y674584D01*
X854914Y674667D01*
X854798Y674750D01*
X854698Y674833D01*
X854631Y674900D01*
X854581Y674950D01*
X854564Y674967D01*
X854481Y675050D01*
X854398Y675150D01*
X854298Y675283D01*
X854198Y675417D01*
X853964Y675733D01*
X853748Y676050D01*
X853531Y676350D01*
X853448Y676483D01*
X853365Y676616D01*
X853298Y676716D01*
X853248Y676783D01*
X853215Y676833D01*
X853198Y676850D01*
X851332Y679632D01*
X848232D01*
X849799Y677133D01*
X849965Y676866D01*
X850132Y676616D01*
X850282Y676383D01*
X850415Y676183D01*
X850549Y676000D01*
X850682Y675833D01*
X850782Y675683D01*
X850882Y675550D01*
X850982Y675433D01*
X851065Y675333D01*
X851182Y675183D01*
X851248Y675100D01*
X851282Y675067D01*
X851498Y674850D01*
X851715Y674650D01*
X851948Y674467D01*
X852165Y674300D01*
X852365Y674167D01*
X852515Y674067D01*
X852631Y674000D01*
X852648Y673984D01*
X852665D01*
X852348Y673934D01*
X852065Y673867D01*
X851798Y673784D01*
X851548Y673700D01*
X851315Y673600D01*
X851115Y673500D01*
X850915Y673400D01*
X850749Y673300D01*
X850599Y673201D01*
X850465Y673101D01*
X850365Y673017D01*
X850282Y672951D01*
X850199Y672884D01*
X850149Y672834D01*
X850132Y672817D01*
X850115Y672801D01*
X849965Y672617D01*
X849832Y672434D01*
X849715Y672234D01*
X849615Y672034D01*
X849466Y671634D01*
X849366Y671251D01*
X849332Y671084D01*
X849316Y670918D01*
X849299Y670784D01*
X849282Y670651D01*
X849266Y670551D01*
Y670484D01*
Y670434D01*
Y670418D01*
X849282Y670001D01*
X849349Y669618D01*
X849449Y669285D01*
X849549Y668985D01*
X849649Y668735D01*
X849699Y668635D01*
X849749Y668552D01*
X849782Y668485D01*
X849816Y668435D01*
X849832Y668418D01*
Y668402D01*
X850065Y668102D01*
X850299Y667835D01*
X850549Y667619D01*
X850799Y667452D01*
X850999Y667319D01*
X851182Y667235D01*
X851248Y667202D01*
X851282Y667185D01*
X851315Y667169D01*
X851332D01*
X851515Y667102D01*
X851715Y667052D01*
X851948Y667002D01*
X852181Y666969D01*
X852681Y666902D01*
X853165Y666869D01*
X853398Y666852D01*
X853615Y666835D01*
X853814D01*
X853981Y666819D01*
X859746D01*
Y679632D01*
D02*
G37*
G36*
X873993D02*
X871260D01*
X870194Y676716D01*
X865078D01*
X863945Y679632D01*
X861129D01*
X866245Y666819D01*
X869011D01*
X873993Y679632D01*
D02*
G37*
G36*
X803960Y679849D02*
X803827D01*
X803444Y679832D01*
X803094Y679782D01*
X802744Y679715D01*
X802428Y679632D01*
X802128Y679532D01*
X801844Y679416D01*
X801594Y679282D01*
X801345Y679149D01*
X801145Y679032D01*
X800945Y678899D01*
X800795Y678782D01*
X800661Y678682D01*
X800545Y678599D01*
X800478Y678532D01*
X800428Y678483D01*
X800412Y678466D01*
X800178Y678199D01*
X799962Y677916D01*
X799778Y677633D01*
X799628Y677333D01*
X799495Y677033D01*
X799378Y676750D01*
X799295Y676466D01*
X799212Y676200D01*
X799162Y675950D01*
X799112Y675716D01*
X799079Y675500D01*
X799062Y675317D01*
Y675167D01*
X799045Y675067D01*
Y674983D01*
Y674967D01*
X799062Y674584D01*
X799095Y674217D01*
X799162Y673867D01*
X799262Y673550D01*
X799362Y673251D01*
X799478Y672967D01*
X799595Y672701D01*
X799712Y672467D01*
X799845Y672251D01*
X799962Y672067D01*
X800078Y671901D01*
X800178Y671768D01*
X800262Y671651D01*
X800328Y671584D01*
X800378Y671534D01*
X800395Y671518D01*
X800661Y671268D01*
X800928Y671068D01*
X801211Y670868D01*
X801511Y670718D01*
X801794Y670584D01*
X802078Y670468D01*
X802361Y670385D01*
X802628Y670301D01*
X802894Y670251D01*
X803127Y670201D01*
X803327Y670185D01*
X803511Y670151D01*
X803661D01*
X803761Y670135D01*
X803861D01*
X804360Y670168D01*
X804810Y670235D01*
X805227Y670334D01*
X805593Y670434D01*
X805760Y670501D01*
X805893Y670551D01*
X806027Y670601D01*
X806127Y670651D01*
X806210Y670701D01*
X806277Y670718D01*
X806310Y670751D01*
X806327D01*
X806710Y671001D01*
X807060Y671284D01*
X807343Y671568D01*
X807593Y671851D01*
X807776Y672101D01*
X807859Y672217D01*
X807909Y672317D01*
X807960Y672384D01*
X807993Y672451D01*
X808026Y672484D01*
Y672501D01*
X808226Y672934D01*
X808376Y673350D01*
X808476Y673750D01*
X808543Y674117D01*
X808576Y674267D01*
X808593Y674417D01*
X808609Y674550D01*
Y674650D01*
X808626Y674750D01*
Y674817D01*
Y674850D01*
Y674867D01*
X808593Y675450D01*
X808526Y675966D01*
X808493Y676200D01*
X808443Y676433D01*
X808376Y676633D01*
X808326Y676816D01*
X808276Y677000D01*
X808210Y677150D01*
X808159Y677266D01*
X808126Y677383D01*
X808076Y677466D01*
X808059Y677533D01*
X808026Y677566D01*
Y677583D01*
X807776Y677983D01*
X807493Y678316D01*
X807210Y678616D01*
X806926Y678849D01*
X806676Y679032D01*
X806560Y679116D01*
X806460Y679166D01*
X806393Y679216D01*
X806327Y679249D01*
X806293Y679282D01*
X806277D01*
X805843Y679465D01*
X805394Y679615D01*
X804994Y679715D01*
X804610Y679782D01*
X804444Y679799D01*
X804294Y679816D01*
X804161Y679832D01*
X804044D01*
X803960Y679849D01*
D02*
G37*
G36*
X683808Y679632D02*
X681359D01*
Y670351D01*
X683808D01*
Y679632D01*
D02*
G37*
G36*
X769303D02*
X766853D01*
Y670351D01*
X769303D01*
Y679632D01*
D02*
G37*
G36*
X786232D02*
X783782D01*
Y675433D01*
Y675150D01*
X783766Y674900D01*
Y674667D01*
X783749Y674450D01*
X783732Y674250D01*
X783716Y674084D01*
X783699Y673917D01*
X783682Y673784D01*
X783666Y673667D01*
X783649Y673567D01*
Y673484D01*
X783632Y673417D01*
X783599Y673334D01*
Y673300D01*
X783516Y673101D01*
X783416Y672901D01*
X783299Y672751D01*
X783183Y672617D01*
X783066Y672501D01*
X782983Y672434D01*
X782916Y672384D01*
X782899Y672367D01*
X782699Y672251D01*
X782499Y672167D01*
X782316Y672101D01*
X782133Y672067D01*
X781983Y672034D01*
X781850Y672018D01*
X781750D01*
X781566Y672034D01*
X781400Y672051D01*
X781250Y672101D01*
X781116Y672134D01*
X781016Y672184D01*
X780950Y672234D01*
X780900Y672251D01*
X780883Y672267D01*
X780767Y672367D01*
X780650Y672484D01*
X780566Y672601D01*
X780500Y672717D01*
X780433Y672817D01*
X780400Y672901D01*
X780367Y672951D01*
Y672967D01*
X780333Y673067D01*
X780317Y673167D01*
X780283Y673300D01*
X780267Y673450D01*
X780233Y673767D01*
X780217Y674100D01*
X780200Y674400D01*
Y674533D01*
Y674650D01*
Y674750D01*
Y674833D01*
Y674883D01*
Y674900D01*
Y679632D01*
X777751D01*
Y673867D01*
Y673484D01*
X777767Y673150D01*
X777801Y672884D01*
X777817Y672634D01*
X777851Y672451D01*
X777884Y672317D01*
X777901Y672251D01*
Y672217D01*
X777967Y672001D01*
X778034Y671817D01*
X778117Y671634D01*
X778184Y671484D01*
X778267Y671351D01*
X778334Y671268D01*
X778367Y671201D01*
X778384Y671184D01*
X778517Y671018D01*
X778684Y670884D01*
X778850Y670751D01*
X779017Y670635D01*
X779167Y670551D01*
X779284Y670484D01*
X779367Y670451D01*
X779400Y670434D01*
X779650Y670334D01*
X779917Y670268D01*
X780167Y670201D01*
X780383Y670168D01*
X780583Y670151D01*
X780750Y670135D01*
X780883D01*
X781216Y670151D01*
X781550Y670201D01*
X781850Y670285D01*
X782150Y670385D01*
X782416Y670501D01*
X782666Y670635D01*
X782899Y670784D01*
X783116Y670918D01*
X783299Y671068D01*
X783466Y671218D01*
X783616Y671351D01*
X783732Y671468D01*
X783832Y671568D01*
X783899Y671651D01*
X783932Y671701D01*
X783949Y671718D01*
Y670351D01*
X786232D01*
Y679632D01*
D02*
G37*
G36*
X824155D02*
X821706D01*
Y675133D01*
Y674883D01*
X821689Y674667D01*
Y674450D01*
X821673Y674267D01*
X821656Y674084D01*
X821639Y673934D01*
X821606Y673667D01*
X821573Y673467D01*
X821556Y673334D01*
X821523Y673251D01*
Y673217D01*
X821439Y673017D01*
X821339Y672834D01*
X821223Y672684D01*
X821123Y672551D01*
X821023Y672467D01*
X820939Y672384D01*
X820890Y672351D01*
X820873Y672334D01*
X820690Y672234D01*
X820506Y672151D01*
X820340Y672101D01*
X820173Y672051D01*
X820040Y672034D01*
X819940Y672018D01*
X819673D01*
X819523Y672051D01*
X819407Y672084D01*
X819290Y672117D01*
X819223Y672151D01*
X819157Y672184D01*
X819123Y672201D01*
X819107Y672217D01*
X819007Y672301D01*
X818923Y672401D01*
X818790Y672584D01*
X818740Y672684D01*
X818707Y672751D01*
X818690Y672801D01*
Y672817D01*
X818673Y672901D01*
X818640Y673000D01*
X818607Y673251D01*
X818590Y673534D01*
X818574Y673834D01*
X818557Y674100D01*
Y674217D01*
Y674333D01*
Y674417D01*
Y674483D01*
Y674533D01*
Y674550D01*
Y679632D01*
X816107D01*
Y675183D01*
Y674950D01*
X816091Y674717D01*
X816074Y674333D01*
X816041Y674000D01*
X816008Y673734D01*
X815974Y673534D01*
X815941Y673384D01*
X815908Y673300D01*
Y673267D01*
X815824Y673051D01*
X815724Y672867D01*
X815608Y672701D01*
X815508Y672567D01*
X815408Y672467D01*
X815324Y672401D01*
X815274Y672351D01*
X815258Y672334D01*
X815091Y672234D01*
X814924Y672151D01*
X814758Y672101D01*
X814608Y672051D01*
X814474Y672034D01*
X814374Y672018D01*
X814291D01*
X814041Y672034D01*
X813825Y672101D01*
X813641Y672184D01*
X813491Y672284D01*
X813391Y672384D01*
X813308Y672467D01*
X813258Y672534D01*
X813242Y672551D01*
X813192Y672634D01*
X813158Y672734D01*
X813092Y673000D01*
X813042Y673284D01*
X813008Y673584D01*
X812992Y673867D01*
X812975Y674000D01*
Y674117D01*
Y674200D01*
Y674267D01*
Y674317D01*
Y674333D01*
Y679632D01*
X810526D01*
Y673700D01*
Y673450D01*
X810542Y673234D01*
Y673034D01*
X810559Y672834D01*
X810609Y672501D01*
X810659Y672234D01*
X810709Y672034D01*
X810742Y671901D01*
X810776Y671817D01*
X810792Y671784D01*
X810942Y671501D01*
X811109Y671251D01*
X811275Y671034D01*
X811459Y670868D01*
X811609Y670718D01*
X811742Y670635D01*
X811825Y670568D01*
X811842Y670551D01*
X811859D01*
X812125Y670418D01*
X812425Y670318D01*
X812708Y670235D01*
X812975Y670185D01*
X813208Y670151D01*
X813408Y670135D01*
X813575D01*
X813875Y670151D01*
X814141Y670201D01*
X814408Y670251D01*
X814624Y670318D01*
X814824Y670401D01*
X814958Y670451D01*
X815058Y670501D01*
X815074Y670518D01*
X815091D01*
X815341Y670668D01*
X815591Y670851D01*
X815807Y671034D01*
X816008Y671201D01*
X816174Y671368D01*
X816307Y671501D01*
X816374Y671584D01*
X816407Y671601D01*
Y671618D01*
X816574Y671351D01*
X816757Y671134D01*
X816924Y670951D01*
X817091Y670784D01*
X817241Y670668D01*
X817357Y670584D01*
X817440Y670535D01*
X817474Y670518D01*
X817724Y670385D01*
X817990Y670301D01*
X818257Y670235D01*
X818490Y670185D01*
X818707Y670151D01*
X818873Y670135D01*
X819023D01*
X819323Y670151D01*
X819623Y670201D01*
X819906Y670268D01*
X820173Y670368D01*
X820423Y670484D01*
X820656Y670601D01*
X820873Y670751D01*
X821073Y670884D01*
X821256Y671018D01*
X821423Y671151D01*
X821556Y671284D01*
X821673Y671401D01*
X821773Y671501D01*
X821839Y671568D01*
X821873Y671618D01*
X821889Y671634D01*
Y670351D01*
X824155D01*
Y679632D01*
D02*
G37*
G36*
X835369Y683165D02*
X825172D01*
Y681565D01*
X835369D01*
Y683165D01*
D02*
G37*
G36*
X764371Y679632D02*
X761921D01*
Y675433D01*
Y675150D01*
X761905Y674900D01*
Y674667D01*
X761888Y674450D01*
X761871Y674250D01*
X761855Y674084D01*
X761838Y673917D01*
X761821Y673784D01*
X761805Y673667D01*
X761788Y673567D01*
Y673484D01*
X761771Y673417D01*
X761738Y673334D01*
Y673300D01*
X761655Y673101D01*
X761555Y672901D01*
X761438Y672751D01*
X761321Y672617D01*
X761205Y672501D01*
X761122Y672434D01*
X761055Y672384D01*
X761038Y672367D01*
X760838Y672251D01*
X760638Y672167D01*
X760455Y672101D01*
X760272Y672067D01*
X760122Y672034D01*
X759988Y672018D01*
X759889D01*
X759705Y672034D01*
X759539Y672051D01*
X759389Y672101D01*
X759255Y672134D01*
X759155Y672184D01*
X759089Y672234D01*
X759039Y672251D01*
X759022Y672267D01*
X758905Y672367D01*
X758789Y672484D01*
X758706Y672601D01*
X758639Y672717D01*
X758572Y672817D01*
X758539Y672901D01*
X758505Y672951D01*
Y672967D01*
X758472Y673067D01*
X758456Y673167D01*
X758422Y673300D01*
X758406Y673450D01*
X758372Y673767D01*
X758356Y674100D01*
X758339Y674400D01*
Y674533D01*
Y674650D01*
Y674750D01*
Y674833D01*
Y674883D01*
Y674900D01*
Y679632D01*
X755890D01*
Y673867D01*
Y673484D01*
X755906Y673150D01*
X755939Y672884D01*
X755956Y672634D01*
X755990Y672451D01*
X756023Y672317D01*
X756040Y672251D01*
Y672217D01*
X756106Y672001D01*
X756173Y671817D01*
X756256Y671634D01*
X756323Y671484D01*
X756406Y671351D01*
X756473Y671268D01*
X756506Y671201D01*
X756523Y671184D01*
X756656Y671018D01*
X756823Y670884D01*
X756989Y670751D01*
X757156Y670635D01*
X757306Y670551D01*
X757422Y670484D01*
X757506Y670451D01*
X757539Y670434D01*
X757789Y670334D01*
X758056Y670268D01*
X758306Y670201D01*
X758522Y670168D01*
X758722Y670151D01*
X758889Y670135D01*
X759022D01*
X759355Y670151D01*
X759688Y670201D01*
X759988Y670285D01*
X760288Y670385D01*
X760555Y670501D01*
X760805Y670635D01*
X761038Y670784D01*
X761255Y670918D01*
X761438Y671068D01*
X761605Y671218D01*
X761755Y671351D01*
X761871Y671468D01*
X761971Y671568D01*
X762038Y671651D01*
X762071Y671701D01*
X762088Y671718D01*
Y670351D01*
X764371D01*
Y679632D01*
D02*
G37*
%LPD*%
G36*
X883024Y668952D02*
X880424D01*
X880224Y668968D01*
X879758D01*
X879641Y668985D01*
X879425D01*
X879358Y669002D01*
X879341D01*
X879108Y669052D01*
X878908Y669101D01*
X878741Y669185D01*
X878608Y669251D01*
X878492Y669335D01*
X878425Y669385D01*
X878375Y669435D01*
X878358Y669451D01*
X878242Y669601D01*
X878158Y669751D01*
X878108Y669918D01*
X878058Y670068D01*
X878042Y670201D01*
X878025Y670318D01*
Y670385D01*
Y670418D01*
X878042Y670635D01*
X878092Y670834D01*
X878142Y671001D01*
X878208Y671151D01*
X878291Y671268D01*
X878342Y671351D01*
X878391Y671401D01*
X878408Y671418D01*
X878558Y671551D01*
X878741Y671651D01*
X878908Y671734D01*
X879075Y671801D01*
X879225Y671834D01*
X879341Y671868D01*
X879425Y671884D01*
X879541D01*
X879641Y671901D01*
X880208D01*
X880541Y671917D01*
X883024D01*
Y668952D01*
D02*
G37*
G36*
Y674050D02*
X880341D01*
X880074Y674067D01*
X879841Y674084D01*
X879624Y674100D01*
X879441D01*
X879275Y674117D01*
X879125Y674134D01*
X879008Y674150D01*
X878908Y674167D01*
X878825Y674184D01*
X878758Y674200D01*
X878675Y674217D01*
X878641Y674234D01*
X878458Y674317D01*
X878291Y674400D01*
X878142Y674500D01*
X878025Y674600D01*
X877942Y674683D01*
X877875Y674767D01*
X877842Y674817D01*
X877825Y674833D01*
X877725Y674983D01*
X877658Y675150D01*
X877608Y675317D01*
X877575Y675467D01*
X877558Y675600D01*
X877542Y675700D01*
Y675767D01*
Y675800D01*
X877558Y676050D01*
X877592Y676266D01*
X877658Y676450D01*
X877725Y676600D01*
X877792Y676733D01*
X877858Y676816D01*
X877892Y676883D01*
X877908Y676899D01*
X878058Y677033D01*
X878208Y677150D01*
X878375Y677233D01*
X878525Y677299D01*
X878658Y677349D01*
X878758Y677383D01*
X878825Y677399D01*
X878858D01*
X878941Y677416D01*
X879041D01*
X879158Y677433D01*
X879291D01*
X879575Y677449D01*
X879874D01*
X880158Y677466D01*
X883024D01*
Y674050D01*
D02*
G37*
G36*
X749774Y677616D02*
X750041Y677549D01*
X750291Y677433D01*
X750491Y677299D01*
X750658Y677183D01*
X750774Y677066D01*
X750841Y677000D01*
X750874Y676966D01*
X750974Y676833D01*
X751057Y676683D01*
X751207Y676333D01*
X751307Y675983D01*
X751374Y675633D01*
X751407Y675300D01*
X751424Y675167D01*
Y675050D01*
X751441Y674933D01*
Y674867D01*
Y674817D01*
Y674800D01*
Y674550D01*
X751424Y674300D01*
X751391Y674084D01*
X751357Y673884D01*
X751257Y673534D01*
X751157Y673234D01*
X751057Y673000D01*
X750957Y672851D01*
X750891Y672751D01*
X750874Y672717D01*
X750641Y672484D01*
X750408Y672317D01*
X750158Y672184D01*
X749941Y672101D01*
X749741Y672051D01*
X749575Y672034D01*
X749508Y672018D01*
X749425D01*
X749108Y672051D01*
X748808Y672134D01*
X748558Y672234D01*
X748342Y672367D01*
X748158Y672501D01*
X748025Y672601D01*
X747958Y672684D01*
X747925Y672717D01*
X747825Y672851D01*
X747725Y673017D01*
X747575Y673350D01*
X747475Y673700D01*
X747392Y674050D01*
X747358Y674367D01*
X747342Y674517D01*
Y674633D01*
X747325Y674733D01*
Y674800D01*
Y674850D01*
Y674867D01*
X747358Y675350D01*
X747425Y675783D01*
X747525Y676133D01*
X747642Y676433D01*
X747758Y676650D01*
X747858Y676816D01*
X747925Y676916D01*
X747958Y676949D01*
X748208Y677183D01*
X748458Y677349D01*
X748708Y677483D01*
X748941Y677566D01*
X749158Y677616D01*
X749324Y677633D01*
X749391Y677649D01*
X749474D01*
X749774Y677616D01*
D02*
G37*
G36*
X857164Y668985D02*
X854198D01*
X854014Y669002D01*
X853615D01*
X853531Y669018D01*
X853331D01*
X853281Y669035D01*
X853265D01*
X853048Y669085D01*
X852848Y669152D01*
X852681Y669235D01*
X852531Y669318D01*
X852431Y669401D01*
X852348Y669468D01*
X852298Y669518D01*
X852281Y669535D01*
X852165Y669701D01*
X852082Y669868D01*
X852015Y670035D01*
X851982Y670201D01*
X851948Y670351D01*
X851932Y670468D01*
Y670551D01*
Y670584D01*
X851948Y670784D01*
X851965Y670968D01*
X852015Y671134D01*
X852065Y671284D01*
X852115Y671401D01*
X852148Y671484D01*
X852181Y671534D01*
X852198Y671551D01*
X852298Y671684D01*
X852431Y671801D01*
X852548Y671884D01*
X852665Y671967D01*
X852765Y672018D01*
X852848Y672051D01*
X852915Y672084D01*
X852931D01*
X853031Y672117D01*
X853165Y672134D01*
X853315Y672151D01*
X853481Y672167D01*
X853864Y672201D01*
X854264Y672217D01*
X854631D01*
X854798Y672234D01*
X857164D01*
Y668985D01*
D02*
G37*
G36*
X867661Y669801D02*
X865895Y674550D01*
X869394D01*
X867661Y669801D01*
D02*
G37*
G36*
X804027Y677833D02*
X804194Y677816D01*
X804510Y677733D01*
X804777Y677616D01*
X805010Y677483D01*
X805210Y677349D01*
X805343Y677233D01*
X805427Y677150D01*
X805460Y677116D01*
X805677Y676816D01*
X805843Y676483D01*
X805943Y676116D01*
X806027Y675783D01*
X806077Y675483D01*
X806093Y675350D01*
Y675233D01*
X806110Y675133D01*
Y675067D01*
Y675017D01*
Y675000D01*
X806077Y674517D01*
X806010Y674084D01*
X805910Y673717D01*
X805777Y673417D01*
X805660Y673184D01*
X805610Y673101D01*
X805560Y673017D01*
X805527Y672967D01*
X805493Y672917D01*
X805460Y672884D01*
X805327Y672751D01*
X805210Y672634D01*
X804927Y672451D01*
X804660Y672317D01*
X804410Y672234D01*
X804177Y672167D01*
X804010Y672151D01*
X803944Y672134D01*
X803661D01*
X803494Y672167D01*
X803194Y672251D01*
X802927Y672367D01*
X802694Y672501D01*
X802494Y672651D01*
X802361Y672767D01*
X802278Y672851D01*
X802244Y672867D01*
Y672884D01*
X802028Y673184D01*
X801861Y673517D01*
X801744Y673867D01*
X801661Y674200D01*
X801611Y674517D01*
X801594Y674650D01*
Y674750D01*
X801578Y674850D01*
Y674917D01*
Y674967D01*
Y674983D01*
X801611Y675483D01*
X801678Y675900D01*
X801794Y676266D01*
X801911Y676566D01*
X802028Y676816D01*
X802094Y676899D01*
X802144Y676983D01*
X802178Y677033D01*
X802211Y677083D01*
X802244Y677100D01*
Y677116D01*
X802361Y677249D01*
X802494Y677349D01*
X802761Y677533D01*
X803027Y677666D01*
X803294Y677749D01*
X803511Y677816D01*
X803677Y677833D01*
X803744Y677849D01*
X803844D01*
X804027Y677833D01*
D02*
G37*
%LPC*%
G36*
X745401Y704918D02*
X741902D01*
X743668Y700169D01*
X745401Y704918D01*
D02*
G37*
G36*
X649454Y711323D02*
X647237D01*
X643555Y702042D01*
X646088D01*
X647837Y706791D01*
X647937Y707075D01*
X647987Y707208D01*
X648021Y707324D01*
X648054Y707424D01*
X648087Y707508D01*
X648104Y707558D01*
Y707574D01*
X648120Y707658D01*
X648170Y707791D01*
X648254Y708041D01*
X648287Y708174D01*
X648320Y708274D01*
X648337Y708341D01*
X648354Y708374D01*
X648854Y706791D01*
X650603Y702042D01*
X653186D01*
X649454Y711323D01*
D02*
G37*
G36*
X638523Y711557D02*
X638440D01*
X638106Y711540D01*
X637773Y711507D01*
X637473Y711440D01*
X637207Y711357D01*
X636940Y711257D01*
X636707Y711140D01*
X636490Y711023D01*
X636290Y710907D01*
X636124Y710790D01*
X635957Y710674D01*
X635840Y710557D01*
X635724Y710457D01*
X635640Y710374D01*
X635590Y710307D01*
X635557Y710274D01*
X635540Y710257D01*
X635324Y709940D01*
X635124Y709574D01*
X634957Y709174D01*
X634807Y708757D01*
X634691Y708324D01*
X634591Y707891D01*
X634491Y707458D01*
X634424Y707025D01*
X634374Y706625D01*
X634341Y706241D01*
X634307Y705908D01*
X634291Y705608D01*
X634274Y705358D01*
Y705258D01*
Y705175D01*
Y705092D01*
Y705042D01*
Y705025D01*
Y705008D01*
X634291Y704342D01*
X634324Y703742D01*
X634391Y703176D01*
X634474Y702659D01*
X634557Y702176D01*
X634674Y701742D01*
X634774Y701359D01*
X634891Y701026D01*
X635007Y700726D01*
X635124Y700476D01*
X635241Y700260D01*
X635324Y700076D01*
X635407Y699943D01*
X635474Y699843D01*
X635507Y699793D01*
X635524Y699776D01*
X635724Y699543D01*
X635957Y699343D01*
X636190Y699160D01*
X636423Y699010D01*
X636657Y698877D01*
X636907Y698760D01*
X637140Y698677D01*
X637373Y698610D01*
X637590Y698560D01*
X637790Y698510D01*
X637973Y698477D01*
X638123Y698460D01*
X638256Y698443D01*
X638440D01*
X638773Y698460D01*
X639106Y698493D01*
X639406Y698560D01*
X639673Y698643D01*
X639939Y698743D01*
X640173Y698860D01*
X640389Y698977D01*
X640589Y699093D01*
X640756Y699227D01*
X640906Y699343D01*
X641039Y699460D01*
X641156Y699560D01*
X641239Y699643D01*
X641289Y699710D01*
X641322Y699743D01*
X641339Y699760D01*
X641556Y700076D01*
X641756Y700443D01*
X641922Y700843D01*
X642055Y701259D01*
X642189Y701676D01*
X642289Y702126D01*
X642372Y702559D01*
X642439Y702975D01*
X642489Y703375D01*
X642522Y703759D01*
X642555Y704092D01*
X642572Y704392D01*
Y704642D01*
X642589Y704742D01*
Y704825D01*
Y704908D01*
Y704942D01*
Y704975D01*
Y704992D01*
X642572Y705658D01*
X642539Y706275D01*
X642489Y706841D01*
X642405Y707358D01*
X642322Y707824D01*
X642222Y708241D01*
X642122Y708607D01*
X642022Y708941D01*
X641922Y709224D01*
X641805Y709474D01*
X641722Y709674D01*
X641639Y709840D01*
X641556Y709974D01*
X641506Y710057D01*
X641472Y710107D01*
X641456Y710124D01*
X641239Y710374D01*
X640989Y710590D01*
X640756Y710790D01*
X640506Y710957D01*
X640239Y711090D01*
X639989Y711207D01*
X639756Y711307D01*
X639523Y711373D01*
X639290Y711440D01*
X639090Y711473D01*
X638906Y711507D01*
X638756Y711540D01*
X638623D01*
X638523Y711557D01*
D02*
G37*
%LPD*%
G36*
X638606Y709507D02*
X638756Y709474D01*
X638890Y709441D01*
X639006Y709391D01*
X639106Y709341D01*
X639173Y709291D01*
X639223Y709274D01*
X639240Y709257D01*
X639356Y709124D01*
X639473Y708957D01*
X639573Y708774D01*
X639639Y708591D01*
X639706Y708408D01*
X639756Y708258D01*
X639789Y708158D01*
X639806Y708141D01*
Y708124D01*
X639839Y707941D01*
X639873Y707741D01*
X639906Y707524D01*
X639923Y707274D01*
X639973Y706758D01*
X639989Y706241D01*
X640006Y706008D01*
Y705775D01*
X640023Y705558D01*
Y705375D01*
Y705225D01*
Y705108D01*
Y705042D01*
Y705008D01*
Y704592D01*
X640006Y704225D01*
Y703875D01*
X639989Y703542D01*
X639956Y703259D01*
X639939Y702992D01*
X639923Y702759D01*
X639889Y702542D01*
X639873Y702376D01*
X639856Y702209D01*
X639823Y702076D01*
X639806Y701976D01*
X639789Y701892D01*
Y701842D01*
X639773Y701809D01*
Y701793D01*
X639689Y701543D01*
X639606Y701326D01*
X639523Y701143D01*
X639439Y701009D01*
X639356Y700909D01*
X639290Y700826D01*
X639256Y700793D01*
X639240Y700776D01*
X639106Y700676D01*
X638973Y700610D01*
X638840Y700543D01*
X638706Y700509D01*
X638606Y700493D01*
X638523Y700476D01*
X638440D01*
X638273Y700493D01*
X638123Y700526D01*
X637990Y700576D01*
X637873Y700626D01*
X637790Y700676D01*
X637723Y700726D01*
X637673Y700759D01*
X637657Y700776D01*
X637523Y700909D01*
X637423Y701076D01*
X637323Y701259D01*
X637240Y701443D01*
X637173Y701626D01*
X637107Y701776D01*
X637090Y701876D01*
X637073Y701892D01*
Y701909D01*
X637040Y702076D01*
X636990Y702276D01*
X636957Y702509D01*
X636940Y702742D01*
X636890Y703259D01*
X636873Y703775D01*
X636857Y704009D01*
Y704242D01*
X636840Y704458D01*
Y704642D01*
Y704792D01*
Y704908D01*
Y704975D01*
Y705008D01*
Y705425D01*
X636857Y705791D01*
Y706141D01*
X636873Y706458D01*
X636907Y706758D01*
X636923Y707025D01*
X636940Y707258D01*
X636973Y707458D01*
X636990Y707641D01*
X637023Y707808D01*
X637040Y707941D01*
X637057Y708041D01*
X637073Y708124D01*
X637090Y708174D01*
X637107Y708207D01*
Y708224D01*
X637190Y708474D01*
X637273Y708691D01*
X637357Y708874D01*
X637440Y709007D01*
X637523Y709107D01*
X637590Y709191D01*
X637623Y709224D01*
X637640Y709241D01*
X637773Y709341D01*
X637906Y709407D01*
X638040Y709457D01*
X638173Y709491D01*
X638273Y709507D01*
X638356Y709524D01*
X638440D01*
X638606Y709507D01*
D02*
G37*
%LPC*%
G36*
X812369Y617834D02*
X810069D01*
X809836Y617817D01*
X809569Y617801D01*
X809319Y617784D01*
X809070Y617751D01*
X808869Y617717D01*
X808836D01*
X808770Y617684D01*
X808653Y617651D01*
X808503Y617601D01*
X808336Y617517D01*
X808153Y617434D01*
X807986Y617334D01*
X807820Y617201D01*
X807803Y617184D01*
X807753Y617134D01*
X807670Y617034D01*
X807570Y616901D01*
X807470Y616734D01*
X807353Y616518D01*
X807237Y616251D01*
X807137Y615951D01*
Y615934D01*
X807120Y615918D01*
X807103Y615868D01*
X807087Y615784D01*
X807070Y615701D01*
X807053Y615601D01*
X807020Y615468D01*
X807003Y615335D01*
X806970Y615168D01*
X806953Y615001D01*
X806903Y614601D01*
X806887Y614135D01*
X806870Y613602D01*
Y613585D01*
Y613535D01*
Y613452D01*
Y613352D01*
Y613235D01*
X806887Y613085D01*
X806903Y612769D01*
X806937Y612402D01*
X806987Y612019D01*
X807053Y611652D01*
X807137Y611336D01*
Y611319D01*
X807153Y611302D01*
X807187Y611202D01*
X807253Y611052D01*
X807337Y610886D01*
X807437Y610686D01*
X807570Y610469D01*
X807720Y610269D01*
X807886Y610086D01*
X807903Y610069D01*
X807970Y610019D01*
X808070Y609936D01*
X808203Y609836D01*
X808386Y609736D01*
X808586Y609636D01*
X808820Y609553D01*
X809086Y609486D01*
X809119D01*
X809186Y609469D01*
X809253Y609453D01*
X809336Y609436D01*
X809436D01*
X809553Y609419D01*
X809686Y609403D01*
X809836Y609386D01*
X810003D01*
X810202Y609369D01*
X810419D01*
X810652Y609353D01*
X812369D01*
Y617834D01*
D02*
G37*
%LPD*%
D17*
X1061720Y1003300D02*
X1087120D01*
X1061720Y622300D02*
X1087120D01*
X1061720D02*
Y641350D01*
Y1003300D01*
X1087120Y622300D02*
Y1003300D01*
X1203537Y637540D02*
X1252220D01*
X1176020D02*
X1252220D01*
X1176020Y688340D02*
X1252220D01*
X1176020Y637540D02*
Y688340D01*
X1252220Y637540D02*
Y688340D01*
X909320Y1003300D02*
X934720D01*
X909320Y622300D02*
X934720D01*
X909320D02*
Y641350D01*
Y1003300D01*
X934720Y622300D02*
Y1003300D01*
X1203537Y701040D02*
X1252220D01*
X1176020D02*
X1252220D01*
X1176020Y751840D02*
X1252220D01*
X1176020Y701040D02*
Y751840D01*
X1252220Y701040D02*
Y751840D01*
X1203537Y960120D02*
X1252220D01*
X1176020D02*
X1252220D01*
X1176020Y1010920D02*
X1252220D01*
X1176020Y960120D02*
Y1010920D01*
X1252220Y960120D02*
Y1010920D01*
X1203537Y889000D02*
X1252220D01*
X1176020D02*
X1252220D01*
X1176020Y939800D02*
X1252220D01*
X1176020Y889000D02*
Y939800D01*
X1252220Y889000D02*
Y939800D01*
X1203537Y830580D02*
X1252220D01*
X1176020D02*
X1252220D01*
X1176020Y881380D02*
X1252220D01*
X1176020Y830580D02*
Y881380D01*
X1252220Y830580D02*
Y881380D01*
X1203537Y772160D02*
X1252220D01*
X1176020D02*
X1252220D01*
X1176020Y822960D02*
X1252220D01*
X1176020Y772160D02*
Y822960D01*
X1252220Y772160D02*
Y822960D01*
X812800Y1003300D02*
X838200D01*
Y749300D02*
Y1003300D01*
X812800Y749300D02*
X838200D01*
X812800D02*
Y768350D01*
Y1003300D01*
X635000D02*
X660400D01*
Y749300D02*
Y1003300D01*
X635000Y749300D02*
X660400D01*
X635000D02*
Y768350D01*
Y1003300D01*
D18*
X1170000Y630000D02*
Y760000D01*
Y630000D02*
X1260000D01*
X1170000Y760000D02*
X1250000D01*
X1170000D02*
Y950000D01*
X1260000D01*
X1170000D02*
Y1020000D01*
X1260000D01*
X1250000Y760000D02*
X1260000D01*
X990000Y950000D02*
Y980000D01*
X980000D02*
X990000D01*
X980000D02*
X1000000Y1000000D01*
X1000000D01*
X1020000Y980000D01*
X1010000D02*
X1020000D01*
X1010000Y950000D02*
Y980000D01*
X990000Y950000D02*
X1010000D01*
X759460Y797560D02*
X746131D01*
Y800892D01*
X749463Y804224D01*
X759460D01*
X749463D01*
X746131Y807557D01*
X749463Y810889D01*
X759460D01*
Y820886D02*
Y827550D01*
X756128Y830883D01*
X749463D01*
X746131Y827550D01*
Y820886D01*
X749463Y817554D01*
X756128D01*
X759460Y820886D01*
X739466Y850876D02*
X759460D01*
Y840879D01*
X756128Y837547D01*
X749463D01*
X746131Y840879D01*
Y850876D01*
Y857541D02*
X756128D01*
X759460Y860873D01*
Y870870D01*
X746131D01*
X759460Y877534D02*
Y884199D01*
Y880866D01*
X739466D01*
Y877534D01*
X759460Y904192D02*
Y897528D01*
X756128Y894195D01*
X749463D01*
X746131Y897528D01*
Y904192D01*
X749463Y907525D01*
X752795D01*
Y894195D01*
X720731Y797560D02*
X730728D01*
X734060Y800892D01*
X730728Y804224D01*
X734060Y807557D01*
X730728Y810889D01*
X720731D01*
X734060Y817554D02*
Y824218D01*
Y820886D01*
X720731D01*
Y817554D01*
Y834215D02*
X734060D01*
X727395D01*
X724063Y837547D01*
X720731Y840879D01*
Y844212D01*
X734060Y864205D02*
Y857541D01*
X730728Y854208D01*
X724063D01*
X720731Y857541D01*
Y864205D01*
X724063Y867537D01*
X727395D01*
Y854208D01*
X734060Y874202D02*
Y880866D01*
Y877534D01*
X714066D01*
Y874202D01*
X734060Y900860D02*
Y894195D01*
X730728Y890863D01*
X724063D01*
X720731Y894195D01*
Y900860D01*
X724063Y904192D01*
X727395D01*
Y890863D01*
X734060Y910857D02*
Y920854D01*
X730728Y924186D01*
X727395Y920854D01*
Y914189D01*
X724063Y910857D01*
X720731Y914189D01*
Y924186D01*
X734060Y930850D02*
Y940847D01*
X730728Y944179D01*
X727395Y940847D01*
Y934183D01*
X724063Y930850D01*
X720731Y934183D01*
Y944179D01*
X1008380Y703580D02*
X995051D01*
X988386Y710245D01*
X995051Y716909D01*
X1008380D01*
X998383D01*
Y703580D01*
X995051Y723574D02*
X1008380D01*
X1001715D01*
X998383Y726906D01*
X995051Y730238D01*
Y733570D01*
X988386Y756896D02*
X1008380D01*
Y746899D01*
X1005048Y743567D01*
X998383D01*
X995051Y746899D01*
Y756896D01*
Y763561D02*
X1005048D01*
X1008380Y766893D01*
Y776890D01*
X995051D01*
X1008380Y783554D02*
Y790219D01*
Y786887D01*
X995051D01*
Y783554D01*
X1008380Y800216D02*
X995051D01*
Y810212D01*
X998383Y813545D01*
X1008380D01*
Y823541D02*
Y830206D01*
X1005048Y833538D01*
X998383D01*
X995051Y830206D01*
Y823541D01*
X998383Y820209D01*
X1005048D01*
X1008380Y823541D01*
X1055000Y914765D02*
Y927461D01*
X1052461Y930000D01*
X1047383D01*
X1044843Y927461D01*
Y914765D01*
X1029608Y917304D02*
X1032147Y914765D01*
X1037226D01*
X1039765Y917304D01*
Y919843D01*
X1037226Y922383D01*
X1032147D01*
X1029608Y924922D01*
Y927461D01*
X1032147Y930000D01*
X1037226D01*
X1039765Y927461D01*
X1024530Y914765D02*
Y930000D01*
X1016912D01*
X1014373Y927461D01*
Y924922D01*
X1016912Y922383D01*
X1024530D01*
X1016912D01*
X1014373Y919843D01*
Y917304D01*
X1016912Y914765D01*
X1024530D01*
X994060Y930000D02*
X986442D01*
X983903Y927461D01*
X986442Y924922D01*
X991520D01*
X994060Y922383D01*
X991520Y919843D01*
X983903D01*
X978825Y930000D02*
X973746D01*
X976285D01*
Y919843D01*
X978825D01*
X955972Y914765D02*
Y930000D01*
X963590D01*
X966129Y927461D01*
Y922383D01*
X963590Y919843D01*
X955972D01*
X943276Y930000D02*
X948354D01*
X950894Y927461D01*
Y922383D01*
X948354Y919843D01*
X943276D01*
X940737Y922383D01*
Y924922D01*
X950894D01*
D19*
X1160000Y700000D02*
Y696001D01*
X1158001Y694002D01*
X1156001Y696001D01*
Y700000D01*
Y697001D01*
X1160000D01*
X1154002Y700000D02*
Y696001D01*
X1151003D01*
X1150003Y697001D01*
Y700000D01*
X1147004Y696001D02*
X1145005D01*
X1144005Y697001D01*
Y700000D01*
X1147004D01*
X1148004Y699000D01*
X1147004Y698001D01*
X1144005D01*
X1142006Y700000D02*
X1140006D01*
X1141006D01*
Y694002D01*
X1142006D01*
X1136008Y700000D02*
X1134008D01*
X1133009Y699000D01*
Y697001D01*
X1134008Y696001D01*
X1136008D01*
X1137008Y697001D01*
Y699000D01*
X1136008Y700000D01*
X1129010Y701999D02*
X1128010D01*
X1127011Y701000D01*
Y696001D01*
X1130010D01*
X1131009Y697001D01*
Y699000D01*
X1130010Y700000D01*
X1127011D01*
X1119013Y701999D02*
Y696001D01*
X1116014D01*
X1115015Y697001D01*
Y699000D01*
X1116014Y700000D01*
X1119013D01*
X1113015D02*
X1111016D01*
X1112016D01*
Y696001D01*
X1113015D01*
X1108017Y700000D02*
Y696001D01*
X1105018D01*
X1104018Y697001D01*
Y700000D01*
X1102019D02*
X1099020D01*
X1098020Y699000D01*
X1099020Y698001D01*
X1101019D01*
X1102019Y697001D01*
X1101019Y696001D01*
X1098020D01*
X1160000Y854002D02*
Y860000D01*
X1157001D01*
X1156001Y859000D01*
Y855002D01*
X1157001Y854002D01*
X1160000D01*
X1154002Y860000D02*
X1152003D01*
X1153002D01*
Y856001D01*
X1154002D01*
X1147004Y861999D02*
X1146004D01*
X1145005Y861000D01*
Y856001D01*
X1148004D01*
X1149004Y857001D01*
Y859000D01*
X1148004Y860000D01*
X1145005D01*
X1143006D02*
X1141006D01*
X1142006D01*
Y856001D01*
X1143006D01*
X1137008Y855002D02*
Y856001D01*
X1138007D01*
X1136008D01*
X1137008D01*
Y859000D01*
X1136008Y860000D01*
X1132009Y856001D02*
X1130010D01*
X1129010Y857001D01*
Y860000D01*
X1132009D01*
X1133009Y859000D01*
X1132009Y858001D01*
X1129010D01*
X1127011Y860000D02*
X1125011D01*
X1126011D01*
Y854002D01*
X1127011D01*
X1116014Y861999D02*
Y856001D01*
X1113015D01*
X1112016Y857001D01*
Y859000D01*
X1113015Y860000D01*
X1116014D01*
X1110016D02*
X1108017D01*
X1109017D01*
Y856001D01*
X1110016D01*
X1105018Y860000D02*
Y856001D01*
X1102019D01*
X1101019Y857001D01*
Y860000D01*
X1099020D02*
X1096021D01*
X1095021Y859000D01*
X1096021Y858001D01*
X1098020D01*
X1099020Y857001D01*
X1098020Y856001D01*
X1095021D01*
X1156001Y984002D02*
X1160000D01*
Y990000D01*
X1156001D01*
X1160000Y987001D02*
X1158001D01*
X1150003Y985002D02*
X1151003Y984002D01*
X1153002D01*
X1154002Y985002D01*
Y986001D01*
X1153002Y987001D01*
X1151003D01*
X1150003Y988001D01*
Y989000D01*
X1151003Y990000D01*
X1153002D01*
X1154002Y989000D01*
X1144005Y985002D02*
X1145005Y984002D01*
X1147004D01*
X1148004Y985002D01*
Y989000D01*
X1147004Y990000D01*
X1145005D01*
X1144005Y989000D01*
X1142006Y990000D02*
X1138007Y986001D01*
X1136008Y990000D02*
X1133009D01*
X1132009Y989000D01*
X1133009Y988001D01*
X1135008D01*
X1136008Y987001D01*
X1135008Y986001D01*
X1132009D01*
X1127011Y990000D02*
X1129010D01*
X1130010Y989000D01*
Y987001D01*
X1129010Y986001D01*
X1127011D01*
X1126011Y987001D01*
Y988001D01*
X1130010D01*
X1124012Y986001D02*
Y990000D01*
Y988001D01*
X1123012Y987001D01*
X1122012Y986001D01*
X1121013D01*
X1118014D02*
X1116014Y990000D01*
X1114015Y986001D01*
X1111016Y990000D02*
X1109016D01*
X1108017Y989000D01*
Y987001D01*
X1109016Y986001D01*
X1111016D01*
X1112016Y987001D01*
Y989000D01*
X1111016Y990000D01*
%TF.MD5,c65ffae1e7708d3c8357c0e00e2a22f0*%
M02*
